<svg width="72" height="76" viewBox="0 0 72 76" fill="none" xmlns="http://www.w3.org/2000/svg">
<path d="M42 0C18.8412 0 0 18.8412 0 42C0 65.1588 18.8412 84 42 84C65.1588 84 84 65.1588 84 42C84 18.8412 65.159 0 42 0ZM42 76.3636C23.0519 76.3636 7.63636 60.9484 7.63636 42C7.63636 23.0516 23.0519 7.63636 42 7.63636C60.9481 7.63636 76.3636 23.0519 76.3636 42C76.3636 60.9481 60.9481 76.3636 42 76.3636Z" fill="#F5EFF0"/>
<path d="M42.0001 45.7734C41.9999 45.7734 42.0004 45.7734 42.0001 45.7734C36.085 45.7734 30.5234 48.0771 26.341 52.2598C24.8499 53.7506 24.8499 56.1683 26.341 57.6594C27.0866 58.405 28.0638 58.7779 29.041 58.7779C30.0182 58.7779 30.9954 58.405 31.7407 57.6594C34.4811 54.919 38.1247 53.4101 42.0001 53.4101C45.8756 53.4101 49.5191 54.9193 52.2596 57.6594C53.7504 59.1503 56.1681 59.1503 57.6593 57.6594C59.1504 56.1685 59.1504 53.7509 57.6593 52.2598C53.4766 48.0771 47.9155 45.7734 42.0001 45.7734Z" fill="#F5EFF0"/>
<path d="M29.3074 37.4529C30.2568 36.506 30.799 35.1925 30.799 33.8536C30.799 32.5147 30.2568 31.2012 29.3074 30.2541C28.3605 29.3074 27.047 28.7627 25.7081 28.7627C24.3666 28.7627 23.0557 29.3074 22.1088 30.2541C21.1619 31.2012 20.6172 32.5147 20.6172 33.8536C20.6172 35.1925 21.1619 36.506 22.1088 37.4529C23.0557 38.3998 24.3692 38.9445 25.7081 38.9445C27.047 38.9445 28.3605 38.3998 29.3074 37.4529Z" fill="#F5EFF0"/>
<path d="M58.2901 28.7627C56.9487 28.7627 55.6377 29.3074 54.6908 30.2541C53.7414 31.2012 53.1992 32.5147 53.1992 33.8536C53.1992 35.1925 53.7414 36.506 54.6908 37.4529C55.6377 38.3998 56.9512 38.9445 58.2901 38.9445C59.629 38.9445 60.9425 38.3995 61.8894 37.4529C62.8388 36.506 63.381 35.1925 63.381 33.8536C63.381 32.5147 62.8388 31.2012 61.8894 30.2541C60.9425 29.3074 59.629 28.7627 58.2901 28.7627Z" fill="#F5EFF0"/>
</svg>
