<svg width="220" height="188" viewBox="0 0 220 188" fill="none" xmlns="http://www.w3.org/2000/svg">
<path d="M110 187.145C170.751 187.145 220 184.302 220 180.794C220 177.286 170.751 174.442 110 174.442C49.2487 174.442 0 177.286 0 180.794C0 184.302 49.2487 187.145 110 187.145Z" fill="#F5F5F5"/>
<path d="M104.22 176.378L99.3522 176.305L99.0742 165.128L103.942 165.201L104.22 176.378Z" fill="#FFB573"/>
<path d="M135.446 176.393H130.572L128.672 165.233H133.545L135.446 176.393Z" fill="#FFB573"/>
<path d="M130.005 175.311H135.945C136.044 175.313 136.14 175.346 136.219 175.405C136.297 175.465 136.355 175.548 136.382 175.642L137.625 179.923C137.656 180.023 137.663 180.13 137.645 180.234C137.626 180.337 137.583 180.435 137.519 180.519C137.455 180.603 137.371 180.671 137.275 180.716C137.179 180.762 137.073 180.784 136.967 180.781C135.055 180.747 133.653 180.641 131.242 180.641C129.762 180.641 127.152 180.792 125.104 180.792C123.056 180.792 122.659 178.789 123.487 178.61C127.186 177.796 128.099 176.68 129.234 175.608C129.444 175.416 129.72 175.31 130.005 175.311Z" fill="#443536"/>
<path d="M99.2206 175.222L104.531 175.306C104.623 175.304 104.713 175.337 104.782 175.399C104.85 175.461 104.892 175.546 104.9 175.637L105.314 179.935C105.322 180.044 105.306 180.154 105.269 180.257C105.232 180.361 105.173 180.455 105.097 180.535C105.02 180.615 104.928 180.678 104.826 180.72C104.724 180.763 104.613 180.784 104.502 180.782C102.591 180.72 99.839 180.569 97.4278 180.53C94.5911 180.485 93.8479 180.602 90.5461 180.53C88.5491 180.501 88.2767 178.493 89.1107 178.324C93.0196 177.561 94.455 177.517 98.0008 175.564C98.3704 175.347 98.7908 175.229 99.2206 175.222Z" fill="#443536"/>
<path d="M101.169 34.7767C100.823 38.0871 100.398 41.3694 99.9212 44.663C99.4447 47.9566 98.8943 51.2277 98.2703 54.5156C98.1114 55.3517 97.9639 56.1372 97.7767 57.0125C97.6689 57.4726 97.5611 57.9383 97.442 58.3871L97.0392 59.7057C96.4709 61.3841 95.7924 63.0241 95.0081 64.6152C94.2517 66.175 93.4234 67.6862 92.5232 69.1487C91.6293 70.6178 90.6578 72.0393 89.6128 73.4074L86.4414 71.6063C87.5761 68.6045 88.7561 65.541 89.6809 62.5279C90.1461 61.0186 90.5602 59.5205 90.8723 58.0393L91.0765 56.9508L91.224 55.8959L91.5134 53.4945C92.2566 46.9971 92.9544 40.4268 93.8281 33.9238L101.169 34.7767Z" fill="#FFB573"/>
<path d="M101.783 30.4834C104.971 33.8499 103.422 47.3664 103.422 47.3664L91.2812 41.4694C91.5816 38.9148 92.0152 36.3771 92.5804 33.8667C93.4031 29.8438 98.6566 27.2179 101.783 30.4834Z" fill="#F23940"/>
<path opacity="0.3" d="M101.783 30.4834C104.971 33.8499 103.422 47.3664 103.422 47.3664L91.2812 41.4694C91.5816 38.9148 92.0152 36.3771 92.5804 33.8667C93.4031 29.8438 98.6566 27.2179 101.783 30.4834Z" fill="white"/>
<path d="M87.5958 69.8662L83.4883 73.6648L88.0269 76.8124C88.0269 76.8124 91.5898 74.2876 90.2339 71.0445L87.5958 69.8662Z" fill="#FFB573"/>
<path d="M83.6716 78.0705L84.7722 78.3567C85.1131 78.4473 85.4727 78.4429 85.8111 78.3439C86.1496 78.2448 86.4537 78.0551 86.6898 77.7956L88.0287 76.8137L83.4901 73.666L82.4575 75.3493C82.3235 75.6025 82.249 75.8823 82.2393 76.1679C82.2297 76.4535 82.2853 76.7376 82.402 76.9991C82.5186 77.2605 82.6933 77.4926 82.9131 77.6781C83.1329 77.8636 83.3922 77.9977 83.6716 78.0705Z" fill="#FFB573"/>
<path opacity="0.2" d="M99.0781 165.128L99.22 170.89L104.088 170.969L103.946 165.206L99.0781 165.128Z" fill="#150304"/>
<path opacity="0.2" d="M133.545 165.239H128.672L129.653 170.99H134.527L133.545 165.239Z" fill="#150304"/>
<path d="M121.785 31.23C120.52 48.7302 124.146 65.4 124.299 69.0751L98.3376 71.3195C92.3806 51.0531 93.572 37.5253 94.4684 32.2624C94.591 31.5175 94.9215 30.8213 95.4227 30.2523C95.9239 29.6832 96.5759 29.264 97.3051 29.0417C97.7476 28.9071 98.2412 28.7668 98.7688 28.6265C99.4609 28.4414 100.21 28.2618 100.993 28.0935C101.424 27.9981 101.866 27.9139 102.315 27.8298C105.99 27.2984 109.693 26.9761 113.406 26.8647C114.104 26.8367 114.813 26.8311 115.505 26.8311C116.197 26.8311 116.776 26.8311 117.372 26.8703H117.877C118.426 26.8943 118.964 27.0272 119.46 27.261C119.956 27.4949 120.4 27.8249 120.764 28.2316C121.129 28.6382 121.407 29.1132 121.583 29.6283C121.758 30.1433 121.827 30.688 121.785 31.23Z" fill="#F23940"/>
<path opacity="0.4" d="M121.785 31.23C120.52 48.7302 124.146 65.4 124.299 69.0751L98.3376 71.3195C92.3806 51.0531 93.572 37.5253 94.4684 32.2624C94.591 31.5175 94.9215 30.8213 95.4227 30.2523C95.9239 29.6832 96.5759 29.264 97.3051 29.0417C97.7476 28.9071 98.2412 28.7668 98.7688 28.6265C99.4609 28.4414 100.21 28.2618 100.993 28.0935C101.424 27.9981 101.866 27.9139 102.315 27.8298C105.99 27.2984 109.693 26.9761 113.406 26.8647C114.104 26.8367 114.813 26.8311 115.505 26.8311C116.197 26.8311 116.776 26.8311 117.372 26.8703H117.877C118.426 26.8943 118.964 27.0272 119.46 27.261C119.956 27.4949 120.4 27.8249 120.764 28.2316C121.129 28.6382 121.407 29.1132 121.583 29.6283C121.758 30.1433 121.827 30.688 121.785 31.23Z" fill="white"/>
<path opacity="0.3" d="M121.519 39.1073L117.582 38.6865C118.18 41.0555 119.622 43.1315 121.644 44.533C121.565 42.7712 121.525 40.9477 121.519 39.1073Z" fill="#F23940"/>
<path d="M111.21 14.667C110.819 18.2355 110.688 24.7329 113.377 26.865C111.613 28.9242 109.281 31.3537 105.077 31.8418C100.873 32.3299 101.361 29.4179 102.343 27.8076C106.218 26.5339 105.866 23.6387 104.935 20.968L111.21 14.667Z" fill="#FFB573"/>
<path d="M105.088 35.6627C105.088 36.1452 104.861 36.5268 104.6 36.5268C104.339 36.5268 104.135 36.1284 104.141 35.6515C104.146 35.1746 104.368 34.7874 104.623 34.793C104.878 34.7986 105.094 35.1858 105.088 35.6627Z" fill="white"/>
<path d="M105.127 39.5901C105.166 40.0671 104.985 40.4711 104.724 40.4935C104.463 40.5159 104.225 40.14 104.185 39.6631C104.145 39.1862 104.333 38.7822 104.593 38.7597C104.854 38.7373 105.093 39.1132 105.127 39.5901Z" fill="white"/>
<path opacity="0.2" d="M108.65 17.2363L104.934 20.9619C105.161 21.5815 105.332 22.2199 105.444 22.8696C106.942 22.5274 108.877 20.7038 108.899 19.1272C108.932 18.4872 108.847 17.8466 108.65 17.2363Z" fill="#150304"/>
<path d="M97.7031 6.97429C97.7031 6.97429 100.829 5.52669 103.711 5.93628C107.569 8.46116 103.847 10.3127 101.635 14.9641C98.6903 16.3612 99.7285 14.88 99.7285 14.88C99.7285 14.88 95.4281 12.4056 97.7031 6.97429Z" fill="#443536"/>
<path d="M111.169 9.34231C111.288 14.1228 111.605 16.917 109.393 19.5653C106.057 23.549 99.9298 21.8826 98.3696 17.2312C96.9626 13.0455 97.0023 5.93092 101.541 3.63608C102.54 3.12534 103.654 2.87555 104.778 2.91044C105.902 2.94532 106.998 3.26372 107.963 3.8354C108.927 4.40708 109.728 5.21308 110.289 6.17688C110.85 7.14068 111.153 8.2303 111.169 9.34231Z" fill="#FFB573"/>
<path d="M106.597 5.66087C106.597 5.66087 109.246 3.47264 112.14 3.1416C116.525 4.61164 113.399 7.33852 112.452 12.3939C109.967 14.4923 110.591 12.7979 110.591 12.7979C110.591 12.7979 105.763 11.4849 106.597 5.66087Z" fill="#443536"/>
<path d="M107.52 6.22243C106.26 7.26605 99.9403 9.76288 96.0654 6.78352C93.7961 5.02732 94.1989 0.836017 97.5519 0C97.3136 0.673302 98.3858 2.71004 102.005 1.30733C105.443 -0.0168315 112.853 -0.375926 112.427 4.11275C112.002 8.60143 107.52 6.22243 107.52 6.22243Z" fill="#443536"/>
<path d="M111.086 3.19258C111.086 3.19258 113.015 2.26118 113.605 0.948242C114.479 3.3553 112.238 3.97249 111.086 3.19258Z" fill="#443536"/>
<path d="M113.802 14.3974C113.526 14.9276 113.147 15.3988 112.686 15.784C112.226 16.1691 111.693 16.4606 111.118 16.6417C109.581 17.1186 108.764 15.772 109.15 14.3076C109.501 12.9947 110.721 11.1599 112.281 11.3226C113.841 11.4853 114.471 13.0844 113.802 14.3974Z" fill="#FFB573"/>
<path d="M108.118 121.974C108.686 110.606 115.403 69.8379 115.403 69.8379L98.3376 71.3023C98.3376 71.3023 95.0471 105.736 95.2173 120.442C95.3875 135.737 97.4242 169.223 97.4242 169.223L105.673 169.346C105.673 169.346 107.506 134.088 108.118 121.974Z" fill="#443536"/>
<path opacity="0.2" d="M110.378 82.6816C107.7 89.2968 107.961 105.58 109.016 112.902C110.049 104.396 111.762 92.9607 113.152 84.0058C111.819 83.3437 110.758 82.8331 110.378 82.6816Z" fill="#150304"/>
<path d="M107.543 70.5116C107.543 70.5116 114.351 108.295 117.188 122.288C120.263 137.617 128.007 169.352 128.007 169.352H136.097C136.097 169.352 131.694 136.332 128.892 121.357C125.692 104.311 126.515 79.3711 124.296 69.0752L107.543 70.5116Z" fill="#443536"/>
<path d="M127.066 169.543H136.631L136.427 166.44L125.613 166.238L127.066 169.543Z" fill="#F23940"/>
<path d="M97.118 169.398L106.212 169.549L106.263 166.407L96.0117 166.076L97.118 169.398Z" fill="#F23940"/>
<path d="M103.993 11.3C104.027 11.6871 103.846 12.0182 103.59 12.0406C103.335 12.0631 103.097 11.7657 103.063 11.3785C103.029 10.9914 103.21 10.6604 103.465 10.6379C103.721 10.6155 103.959 10.9128 103.993 11.3Z" fill="#443536"/>
<path d="M99.5673 11.6769C99.6014 12.0641 99.4198 12.3951 99.1645 12.4176C98.9092 12.44 98.671 12.1426 98.6369 11.7555C98.6029 11.3683 98.7844 11.0373 99.0397 11.0149C99.295 10.9924 99.5333 11.2898 99.5673 11.6769Z" fill="#443536"/>
<path d="M100.993 11.7715C100.628 12.9952 100.096 14.1638 99.4102 15.2446C100.159 15.8057 101.311 15.4298 101.311 15.4298L100.993 11.7715Z" fill="#ED893E"/>
<path d="M104.834 15.1944C104.398 15.2205 103.973 15.3334 103.583 15.5262C103.193 15.7191 102.846 15.9879 102.564 16.3166C102.543 16.3385 102.531 16.3677 102.531 16.398C102.531 16.4283 102.543 16.4574 102.564 16.4793C102.587 16.4991 102.616 16.5099 102.646 16.5099C102.677 16.5099 102.706 16.4991 102.729 16.4793C103.05 16.1146 103.454 15.83 103.907 15.6487C104.361 15.4673 104.851 15.3944 105.338 15.4357C105.368 15.4358 105.397 15.425 105.419 15.4053C105.441 15.3855 105.455 15.3584 105.458 15.3291C105.459 15.3139 105.458 15.2986 105.453 15.284C105.448 15.2695 105.441 15.256 105.431 15.2444C105.42 15.2329 105.408 15.2235 105.394 15.2168C105.38 15.2101 105.365 15.2064 105.35 15.2057C105.178 15.1875 105.006 15.1837 104.834 15.1944Z" fill="#443536"/>
<path d="M103.316 8.73068C103.277 8.74103 103.243 8.7649 103.22 8.79801C103.199 8.81889 103.182 8.84379 103.17 8.87124C103.158 8.89869 103.152 8.92816 103.152 8.95792C103.152 8.98768 103.158 9.01715 103.17 9.0446C103.182 9.07205 103.199 9.09694 103.22 9.11783C103.493 9.36086 103.821 9.53479 104.177 9.6247C104.533 9.71461 104.905 9.71781 105.262 9.63403C105.292 9.62636 105.319 9.61287 105.343 9.59438C105.366 9.57588 105.386 9.55279 105.4 9.5265C105.415 9.50022 105.423 9.47131 105.426 9.44156C105.429 9.4118 105.425 9.38183 105.416 9.35349C105.408 9.32454 105.394 9.29743 105.376 9.27378C105.357 9.25012 105.334 9.23039 105.307 9.21575C105.281 9.20111 105.252 9.19185 105.222 9.18852C105.191 9.1852 105.161 9.18787 105.132 9.19638C104.848 9.25831 104.554 9.2519 104.274 9.17768C103.993 9.10346 103.735 8.96362 103.521 8.76996C103.492 8.74778 103.459 8.73264 103.423 8.72581C103.388 8.71897 103.351 8.72065 103.316 8.73068Z" fill="#443536"/>
<path d="M99.0457 8.85976C99.0086 8.8557 98.9711 8.86075 98.9365 8.87445C98.9019 8.88815 98.8712 8.91009 98.8472 8.93831C98.6685 9.16435 98.4378 9.34491 98.1743 9.46495C97.9109 9.58499 97.6222 9.64105 97.3324 9.62845C97.2746 9.62697 97.2183 9.64681 97.1746 9.68411C97.1308 9.72141 97.1026 9.7735 97.0955 9.83023C97.0884 9.88695 97.1029 9.94426 97.1363 9.99097C97.1696 10.0377 97.2192 10.0705 97.2757 10.0829C97.6416 10.1059 98.0077 10.0408 98.3426 9.89324C98.6776 9.74569 98.9714 9.52007 99.1989 9.23569C99.2188 9.21253 99.2338 9.18571 99.2431 9.15678C99.2524 9.12785 99.2559 9.09738 99.2533 9.06713C99.2506 9.03688 99.2419 9.00744 99.2278 8.98051C99.2136 8.95359 99.1941 8.92971 99.1705 8.91026C99.1346 8.88216 99.0913 8.86466 99.0457 8.85976Z" fill="#443536"/>
<path d="M128.453 176.169C128.878 176.158 129.3 176.1 129.712 175.996C129.734 175.991 129.754 175.979 129.768 175.961C129.783 175.944 129.791 175.923 129.792 175.9C129.795 175.878 129.791 175.855 129.781 175.835C129.771 175.815 129.755 175.799 129.735 175.788C129.548 175.676 127.914 174.722 127.392 174.997C127.334 175.027 127.287 175.074 127.256 175.131C127.224 175.187 127.211 175.252 127.216 175.317C127.211 175.432 127.234 175.547 127.282 175.652C127.331 175.757 127.403 175.85 127.494 175.923C127.779 176.104 128.115 176.191 128.453 176.169ZM129.366 175.833C128.549 175.996 127.914 175.967 127.63 175.749C127.57 175.698 127.522 175.634 127.491 175.562C127.46 175.49 127.445 175.412 127.449 175.333C127.449 175.244 127.483 175.216 127.511 175.199C127.783 175.047 128.725 175.457 129.366 175.822V175.833Z" fill="#F23940"/>
<path d="M129.687 175.984C129.702 175.985 129.718 175.982 129.732 175.975C129.746 175.969 129.758 175.959 129.768 175.947C129.778 175.935 129.785 175.921 129.789 175.907C129.792 175.892 129.792 175.876 129.789 175.861C129.789 175.805 129.573 174.413 128.977 173.953C128.909 173.897 128.829 173.854 128.743 173.829C128.657 173.804 128.567 173.797 128.478 173.807C128.393 173.807 128.31 173.837 128.246 173.893C128.183 173.949 128.142 174.027 128.132 174.11C128.064 174.643 129.108 175.704 129.63 175.973L129.687 175.984ZM128.552 174.032C128.651 174.035 128.747 174.07 128.824 174.133C129.19 174.562 129.422 175.086 129.494 175.642C128.972 175.266 128.297 174.469 128.359 174.15C128.359 174.15 128.359 174.054 128.518 174.037H128.575L128.552 174.032Z" fill="#F23940"/>
<path d="M98.7225 175.878C98.7426 175.872 98.7605 175.86 98.7737 175.844C98.7868 175.828 98.7947 175.809 98.7962 175.788C98.8004 175.765 98.7972 175.741 98.787 175.72C98.7768 175.699 98.7602 175.681 98.7395 175.67C98.5182 175.552 96.578 174.548 95.9766 174.856C95.9208 174.886 95.8738 174.93 95.84 174.983C95.8062 175.036 95.7868 175.097 95.7837 175.159C95.7688 175.263 95.7802 175.368 95.8168 175.466C95.8535 175.564 95.9142 175.652 95.9936 175.721C96.5156 176.197 97.9169 176.029 98.7055 175.889L98.7225 175.878ZM96.1298 175.047C96.4986 174.929 97.5538 175.345 98.3197 175.721C97.2418 175.883 96.4418 175.822 96.1468 175.552C96.0959 175.507 96.0574 175.45 96.0346 175.386C96.0118 175.323 96.0055 175.254 96.0163 175.188C96.0156 175.162 96.0222 175.137 96.0352 175.115C96.0483 175.093 96.0673 175.076 96.0901 175.064L96.1298 175.047Z" fill="#F23940"/>
<path d="M98.7225 175.877C98.7393 175.865 98.7528 175.849 98.7617 175.83C98.7707 175.812 98.7747 175.791 98.7736 175.77C98.7736 175.72 98.6544 174.418 98.0417 173.902C97.9552 173.827 97.8543 173.771 97.745 173.736C97.6358 173.702 97.5205 173.689 97.4063 173.7C97.0886 173.728 96.9978 173.885 96.9751 174.009C96.873 174.57 98.0247 175.613 98.609 175.883C98.6258 175.895 98.6461 175.901 98.6668 175.9C98.6874 175.899 98.7071 175.891 98.7225 175.877ZM97.3382 173.924H97.4574C97.5416 173.918 97.6262 173.929 97.7061 173.956C97.786 173.983 97.8596 174.026 97.9226 174.082C98.2799 174.504 98.496 175.025 98.541 175.574C97.9736 175.209 97.168 174.379 97.2304 174.054C97.2304 174.02 97.2418 173.969 97.3382 173.924Z" fill="#F23940"/>
<path d="M121.414 30.3887C121.982 30.9946 122.436 31.5108 122.918 32.1112C123.4 32.7116 123.86 33.2614 124.314 33.845C125.227 35.0176 126.089 36.2296 126.923 37.4808C128.675 40.0476 130.113 42.8105 131.207 45.7119C131.486 46.5165 131.715 47.3372 131.893 48.1695C131.944 48.3827 131.978 48.6127 132.018 48.8315L132.075 49.1682V49.3028C132.075 49.4038 132.075 49.5048 132.109 49.6058C132.123 49.8095 132.123 50.0138 132.109 50.2174C132.045 50.928 131.806 51.6122 131.411 52.2093C131.152 52.6038 130.837 52.9591 130.475 53.2641C130.005 53.6544 129.487 53.9826 128.932 54.2404C128.508 54.4436 128.072 54.6216 127.627 54.7734C126.85 55.037 126.055 55.2488 125.25 55.4075C123.752 55.7142 122.236 55.9223 120.711 56.0303C119.226 56.152 117.735 56.1895 116.246 56.1425L115.77 52.5571C118.408 51.6762 121.142 50.8739 123.548 49.8808C124.143 49.6339 124.716 49.3702 125.21 49.1177C125.425 49.0029 125.634 48.8755 125.834 48.7362C125.999 48.6239 126.101 48.5005 126.05 48.5117C125.952 48.5786 125.869 48.6645 125.806 48.7642C125.605 49.0642 125.486 49.41 125.46 49.7686C125.46 49.8864 125.46 50.0042 125.46 50.1164V50.2904V50.324V50.2904L125.408 50.1108C125.374 49.9874 125.352 49.8695 125.306 49.7349C125.137 49.1983 124.936 48.6719 124.705 48.1582C124.211 47.0263 123.639 45.9296 122.992 44.8759C122.328 43.7537 121.59 42.6708 120.819 41.5879C120.047 40.505 119.23 39.4221 118.408 38.3561L117.148 36.7738L115.894 35.2533L121.414 30.3887Z" fill="#FFB573"/>
<path d="M117.945 26.8871C122.393 26.9601 128.157 36.1731 128.157 36.1731L119.029 43.6748C119.029 43.6748 114.36 39.3152 112.703 35.1182C110.899 30.5454 112.539 26.803 117.945 26.8871Z" fill="#F23940"/>
<path opacity="0.4" d="M117.945 26.8871C122.393 26.9601 128.157 36.1731 128.157 36.1731L119.029 43.6748C119.029 43.6748 114.36 39.3152 112.703 35.1182C110.899 30.5454 112.539 26.803 117.945 26.8871Z" fill="white"/>
<path d="M112.837 25.9385C112.837 25.9385 111.572 29.0301 104.895 31.8579C106.216 32.7276 107.164 35.1234 107.164 35.1234C107.164 35.1234 115.867 31.5101 114.772 26.5388C114.164 26.2358 113.511 26.033 112.837 25.9385Z" fill="white"/>
<path d="M102.919 35.1626C102.919 35.1626 103.487 32.8454 104.911 31.8579C104.065 31.2294 102.607 29.1646 102.993 27.4141C102.447 27.457 101.91 27.578 101.399 27.7732C101.399 27.7732 99.2204 31.6334 102.919 35.1626Z" fill="white"/>
<path d="M113.656 59.9854C113.485 59.9829 113.319 59.9275 113.181 59.8268C113.044 59.7261 112.942 59.5854 112.89 59.4243L99.6993 22.7182C99.624 22.5173 99.6326 22.2951 99.723 22.1004C99.8135 21.9057 99.9784 21.7546 100.182 21.6802C100.385 21.6058 100.609 21.6142 100.806 21.7036C101.003 21.7931 101.156 21.9562 101.231 22.1571L114.422 58.9025C114.458 59.002 114.473 59.1075 114.468 59.213C114.463 59.3185 114.436 59.4219 114.39 59.5173C114.345 59.6127 114.28 59.6982 114.201 59.7689C114.121 59.8396 114.029 59.8941 113.928 59.9293C113.841 59.9617 113.749 59.9806 113.656 59.9854Z" fill="#443536"/>
<path d="M101.511 27.7769C106.666 25.9873 109.038 19.4503 106.811 13.176C104.584 6.90169 98.6002 3.26608 93.4459 5.05563C88.2916 6.84518 85.9188 13.3822 88.146 19.6565C90.3732 25.9308 96.3571 29.5664 101.511 27.7769Z" fill="#443536"/>
<path d="M101.807 27.4563C106.749 25.7187 108.923 19.2117 106.662 12.9225C104.402 6.63332 98.5625 2.94348 93.6204 4.68103C88.6783 6.41859 86.5045 12.9256 88.7652 19.2148C91.0258 25.504 96.8649 29.1938 101.807 27.4563Z" fill="#F23940"/>
<path d="M91.629 18.1962C91.287 18.1884 90.9509 18.1059 90.6449 17.9545C90.3389 17.8032 90.0705 17.5868 89.859 17.3209C89.8417 17.2979 89.8292 17.2717 89.8224 17.2438C89.8156 17.2159 89.8146 17.187 89.8193 17.1587C89.8241 17.1304 89.8346 17.1033 89.8502 17.0792C89.8658 17.055 89.8861 17.0341 89.91 17.0179C89.9578 16.9839 90.017 16.9696 90.0752 16.978C90.1334 16.9864 90.1861 17.0168 90.2221 17.0628C90.4652 17.3578 90.7947 17.5713 91.1653 17.674C91.5359 17.7766 91.9296 17.7635 92.2923 17.6363C92.6551 17.5091 92.9692 17.2742 93.1917 16.9636C93.4143 16.653 93.5342 16.282 93.5353 15.9014C93.5321 15.8427 93.5524 15.7852 93.5916 15.7412C93.6308 15.6971 93.686 15.67 93.7452 15.6657C93.7747 15.6634 93.8044 15.667 93.8325 15.6763C93.8606 15.6856 93.8865 15.7003 93.9087 15.7197C93.9309 15.739 93.949 15.7626 93.9618 15.789C93.9747 15.8154 93.982 15.8441 93.9835 15.8733C93.9943 16.3514 93.8505 16.8205 93.5729 17.2121C93.2953 17.6037 92.8985 17.8974 92.4403 18.0503C92.181 18.1468 91.9061 18.1962 91.629 18.1962Z" fill="white"/>
<path d="M100.709 15.0028C100.367 14.9939 100.031 14.9108 99.7255 14.7596C99.4196 14.6084 99.1511 14.3926 98.9387 14.1275C98.9053 14.0805 98.8919 14.0224 98.9014 13.9657C98.911 13.909 98.9427 13.8583 98.9898 13.8246C99.0135 13.8073 99.0405 13.7949 99.0691 13.7881C99.0977 13.7813 99.1275 13.7802 99.1565 13.7849C99.1856 13.7897 99.2134 13.8 99.2383 13.8155C99.2633 13.831 99.2849 13.8512 99.3018 13.8751C99.5463 14.1694 99.8766 14.382 100.248 14.4839C100.619 14.5858 101.013 14.572 101.376 14.4444C101.739 14.3168 102.053 14.0816 102.276 13.7708C102.499 13.4601 102.619 13.0889 102.621 12.708C102.618 12.6788 102.622 12.6494 102.631 12.6217C102.641 12.5939 102.656 12.5682 102.675 12.5463C102.695 12.5243 102.719 12.5064 102.745 12.4937C102.772 12.481 102.801 12.4738 102.831 12.4723C102.86 12.4701 102.889 12.4737 102.917 12.483C102.945 12.4923 102.97 12.5072 102.992 12.5266C103.014 12.546 103.031 12.5697 103.044 12.596C103.056 12.6224 103.063 12.651 103.063 12.68C103.074 13.1574 102.931 13.6259 102.655 14.0175C102.378 14.409 101.983 14.7031 101.526 14.857C101.264 14.9531 100.988 15.0025 100.709 15.0028Z" fill="white"/>
<path d="M96.0043 22.3425C95.947 22.3427 95.8917 22.3214 95.8496 22.2829C95.8075 22.2444 95.7817 22.1915 95.7774 22.1349C95.7736 21.4702 95.979 20.8208 96.3651 20.2766C96.7512 19.7325 97.2988 19.3206 97.9322 19.098C98.5656 18.8754 99.2533 18.8532 99.9 19.0344C100.547 19.2157 101.12 19.5913 101.541 20.1094C101.559 20.1329 101.571 20.1596 101.578 20.1879C101.585 20.2162 101.586 20.2456 101.582 20.2743C101.577 20.3031 101.566 20.3306 101.551 20.3553C101.535 20.3799 101.515 20.4013 101.49 20.418C101.442 20.4514 101.382 20.4648 101.324 20.4554C101.266 20.4459 101.214 20.4144 101.178 20.3675C100.814 19.9269 100.322 19.6083 99.7675 19.4553C99.2134 19.3023 98.625 19.3223 98.0828 19.5127C97.5407 19.7031 97.0713 20.0546 96.7388 20.5189C96.4063 20.9833 96.2271 21.5379 96.2256 22.1069C96.2287 22.1655 96.2085 22.223 96.1693 22.2671C96.13 22.3111 96.0749 22.3382 96.0157 22.3425H96.0043Z" fill="white"/>
<path d="M90.3096 15.1887C90.2791 15.1882 90.2494 15.1796 90.2234 15.1638C90.1975 15.148 90.1763 15.1256 90.1621 15.0989C90.1523 15.0798 90.1465 15.0589 90.145 15.0376C90.1434 15.0162 90.1461 14.9947 90.153 14.9744C90.1598 14.954 90.1707 14.9353 90.1849 14.9191C90.1991 14.9029 90.2164 14.8897 90.2358 14.8801C90.9864 14.4406 91.6369 13.8524 92.1465 13.1524C92.6562 12.4523 93.0139 11.6556 93.1973 10.8123C93.2007 10.7907 93.2085 10.7701 93.2201 10.7516C93.2317 10.7331 93.247 10.7171 93.265 10.7046C93.2829 10.692 93.3033 10.6832 93.3248 10.6785C93.3463 10.6739 93.3686 10.6736 93.3902 10.6776C93.4335 10.687 93.4714 10.7129 93.4958 10.7495C93.5202 10.7862 93.5291 10.8309 93.5207 10.874C93.3356 11.7686 92.9608 12.6143 92.421 13.3551C91.8811 14.096 91.1886 14.7152 90.389 15.1719C90.364 15.1829 90.3369 15.1886 90.3096 15.1887Z" fill="white"/>
<path d="M100.265 11.4231C98.7479 11.4374 97.2749 10.9206 96.1062 9.96433C96.0723 9.93606 96.0512 9.89564 96.0475 9.85197C96.0437 9.80831 96.0577 9.76496 96.0863 9.73148C96.1149 9.698 96.1557 9.67712 96.1999 9.67344C96.2441 9.66975 96.2879 9.68357 96.3217 9.71184C97.0002 10.254 97.7856 10.6502 98.6276 10.8753C99.4696 11.1004 100.35 11.1494 101.212 11.0192C101.233 11.0148 101.255 11.0145 101.277 11.0185C101.298 11.0224 101.318 11.0305 101.336 11.0422C101.355 11.0539 101.37 11.0691 101.383 11.0868C101.395 11.1045 101.403 11.1244 101.408 11.1454C101.412 11.1664 101.413 11.1881 101.409 11.2092C101.405 11.2303 101.396 11.2504 101.385 11.2683C101.373 11.2863 101.357 11.3018 101.34 11.3139C101.322 11.3261 101.301 11.3346 101.28 11.339C100.945 11.4002 100.605 11.4284 100.265 11.4231Z" fill="white"/>
<path d="M104.895 17.1191C104.656 17.101 104.43 17.0087 104.247 16.8556C104.065 16.7024 103.936 16.4961 103.879 16.2662C103.758 15.6161 103.872 14.9445 104.203 14.3697C104.225 14.334 104.26 14.3078 104.301 14.2964C104.342 14.2849 104.386 14.2891 104.424 14.308C105.015 14.6162 105.477 15.121 105.729 15.7332C105.829 15.9915 105.822 16.2784 105.71 16.5317C105.597 16.7849 105.388 16.9839 105.127 17.0854C105.052 17.108 104.974 17.1193 104.895 17.1191ZM104.418 14.6896C104.179 15.1471 104.103 15.6709 104.203 16.1764C104.205 16.2754 104.231 16.3725 104.277 16.4602C104.324 16.5478 104.39 16.6237 104.471 16.682C104.552 16.7402 104.645 16.7793 104.744 16.7961C104.843 16.8129 104.944 16.8071 105.04 16.779C105.136 16.7509 105.224 16.7014 105.298 16.6342C105.371 16.567 105.428 16.484 105.464 16.3915C105.5 16.2991 105.514 16.1997 105.505 16.1011C105.495 16.0025 105.463 15.9074 105.411 15.823C105.221 15.3489 104.878 14.9503 104.435 14.6896H104.418Z" fill="white"/>
<path d="M108.868 55.1943L109.317 56.1987C109.458 56.5144 109.684 56.7859 109.97 56.9837C110.256 57.1815 110.591 57.2981 110.939 57.3209L113.515 57.4948L112.692 51.7773L110.031 52.6246C109.776 52.7057 109.54 52.8391 109.34 53.0163C109.14 53.1934 108.98 53.4103 108.87 53.6527C108.76 53.8952 108.703 54.1577 108.703 54.4234C108.703 54.689 108.759 54.9517 108.868 55.1943Z" fill="#FFB573"/>
<path d="M117.622 52.3091L112.703 51.748L113.526 57.4655C113.526 57.4655 118.064 57.4206 118.507 55.0753L117.622 52.3091Z" fill="#FFB573"/>
</svg>
