<svg width="171" height="144" viewBox="0 0 171 144" fill="none" xmlns="http://www.w3.org/2000/svg">
<path d="M170 93.7413C170 93.7413 170.099 61.5363 143.013 39.5942C125.942 25.7779 98.0856 16.0369 52.611 21.0068C-65.0514 33.8291 42.9942 184.84 133.372 97.2948C133.372 97.2948 153.823 73.0168 170 93.7413Z" stroke="black" stroke-width="0.759355" stroke-miterlimit="10"/>
<path d="M170 93.7413C170 93.7413 170.099 61.5363 143.013 39.5942C125.942 25.7779 98.0856 16.0369 52.611 21.0068C-65.0514 33.8291 42.9942 184.84 133.372 97.2948C133.372 97.2948 153.823 73.0168 170 93.7413Z" fill="white"/>
<path d="M70.4529 19.7637C64.8369 19.9128 58.8979 20.3104 52.611 21.0061C-65.0514 33.8285 42.9942 184.839 133.372 97.2941C133.372 97.2941 153.823 73.0161 170 93.7406C170 93.7406 170.099 60.8399 142.169 38.9226" stroke="black" stroke-width="0.759355" stroke-miterlimit="10"/>
<path d="M116.255 71.6746L116.901 97.0708L116.503 122.492L116.926 122.79L116.528 122.442L96.3752 127.934L75.949 132.432L75.8744 132.953L75.9738 132.432L63.226 125.151L51.0249 116.975L50.7764 117.124L51.0498 117.025L51.0001 93.7161L51.9941 70.4321" fill="#FC5258"/>
<path d="M116.252 71.6746L116.898 97.0708L116.501 122.492M116.526 122.442L96.3728 127.934L75.9465 132.432L75.8719 132.953L75.9713 132.432L63.2235 125.151L51.0224 116.975L50.7739 117.124L51.0473 117.025L50.9976 93.7161L51.9916 70.4321" stroke="black" stroke-width="0.759355" stroke-miterlimit="10"/>
<path d="M76.171 134.047L75.8976 105.892L76.668 77.7627" fill="white"/>
<path d="M75.8976 132.556L76.2455 105.967L76.668 77.7627" stroke="black" stroke-width="0.759355" stroke-miterlimit="10"/>
<path d="M87.1519 67.2266L87.8477 71.6995L87.4749 76.2221" fill="white"/>
<path d="M87.1519 67.2266L87.8477 71.6995L87.4749 76.2221" stroke="black" stroke-width="0.759355" stroke-miterlimit="10"/>
<path d="M115.759 72.0224L96.1283 75.2777L76.373 77.4893L64.4949 74.3334L52.269 70.7054H51.7471L52.269 70.7551L69.7878 68.5932L87.431 67.475V66.9531L87.4061 67.475L101.67 69.2393L115.759 72.0721L116.281 72.0473L115.759 72.0224Z" fill="white"/>
<path d="M115.759 72.0224L96.1283 75.2777L76.373 77.4893L64.4949 74.3334L52.269 70.7054H51.7471L52.269 70.7551L69.7879 68.5932L87.431 67.475V66.9531L87.4061 67.475L101.67 69.2393L115.759 72.0721L116.281 72.0473L115.759 72.0224Z" stroke="black" stroke-width="0.759355" stroke-miterlimit="10"/>
<path d="M87.3761 76.0979L87.4258 67.7236" stroke="black" stroke-width="0.759355" stroke-miterlimit="10"/>
<path d="M106.88 12.3336C106.855 12.3584 106.88 12.4081 106.905 12.4578C114.906 20.3102 122.883 28.113 130.885 35.0211C134.364 38.0279 137.842 40.8608 141.321 43.4451C141.361 43.47 141.406 43.4854 141.452 43.4898C141.499 43.4946 141.546 43.4881 141.589 43.471C141.633 43.4541 141.671 43.4272 141.703 43.3924C141.734 43.3579 141.757 43.3162 141.769 43.2712C143.061 40.0159 144.353 36.7358 145.62 33.4308C145.645 33.3811 145.645 33.3314 145.596 33.3065C134.438 24.6838 123.281 13.1784 112.123 1.22583C111.974 1.07673 111.751 1.10158 111.701 1.27553C110.086 4.95325 108.495 8.63098 106.88 12.3336Z" fill="#FC5258" stroke="black" stroke-width="0.759355" stroke-miterlimit="10" stroke-linecap="round"/>
<path d="M71.1727 20.8582C71.0982 21.0321 71.2473 21.1812 71.3964 21.1067C75.9958 19.1883 80.7301 17.6103 85.5606 16.3852C92.6427 14.5961 99.7248 13.4779 106.807 12.4093C106.824 12.4093 106.848 12.3845 106.881 12.3348L111.677 1.30161C111.691 1.26468 111.695 1.2248 111.688 1.18596C111.682 1.14714 111.665 1.11074 111.64 1.08047C111.614 1.05023 111.582 1.02714 111.545 1.01362C111.508 1.00008 111.468 0.996552 111.429 1.00341C99.3769 3.36411 87.3249 5.52602 75.2729 10.5208C75.2232 10.5374 75.1983 10.5623 75.1983 10.5953C73.8565 13.9748 72.5146 17.3792 71.1727 20.8582Z" fill="#FC5258" stroke="black" stroke-width="0.759355" stroke-miterlimit="10" stroke-linecap="round"/>
<path d="M71.3753 21.479C82.7563 27.5671 94.1374 36.2645 105.494 45.0612C105.53 45.087 105.571 45.1047 105.615 45.1124C105.659 45.1201 105.704 45.1178 105.747 45.1059C105.79 45.094 105.83 45.0726 105.863 45.0435C105.897 45.0142 105.923 44.9777 105.941 44.9369C107.034 41.8556 108.103 38.7991 109.196 35.7426C109.203 35.7175 109.205 35.6909 109.201 35.6653C109.196 35.6395 109.187 35.6149 109.171 35.5935C101.319 29.0333 93.4665 22.3736 85.614 16.4346H85.5146C80.7152 17.635 76.0137 19.1968 71.4498 21.1063C71.2759 21.156 71.2262 21.4045 71.3753 21.479Z" fill="white" stroke="black" stroke-width="0.759355" stroke-miterlimit="10" stroke-linecap="round"/>
<path d="M85.7589 16.534C93.5616 22.4482 101.389 29.083 109.192 35.6184L109.267 35.6681C116.373 35.6681 123.505 35.6681 130.612 35.0469C130.712 35.022 130.761 34.8978 130.687 34.8481C122.76 27.9896 114.833 20.2366 106.906 12.4338H106.806C99.7988 13.4775 92.7913 14.5957 85.8086 16.3601C85.7934 16.3678 85.7803 16.3787 85.7696 16.3916C85.7586 16.4048 85.7507 16.4199 85.7462 16.4363C85.7415 16.4525 85.7402 16.4696 85.7425 16.4865C85.7447 16.5032 85.7502 16.5193 85.7589 16.534Z" fill="white" stroke="black" stroke-width="0.759355" stroke-miterlimit="10" stroke-linecap="round"/>
<path d="M105.965 45.2849C117.645 45.5085 129.349 45.9061 141.028 43.769C141.252 43.7194 141.351 43.446 141.177 43.3218C137.748 40.7623 134.343 38.004 130.914 35.0469H130.84C123.658 35.693 116.477 35.693 109.295 35.693L109.196 35.7427C108.102 38.8737 106.984 42.0047 105.866 45.1606C105.862 45.1755 105.862 45.1912 105.865 45.2063C105.868 45.2215 105.875 45.2357 105.885 45.2476C105.894 45.2598 105.906 45.2692 105.921 45.2757C105.934 45.2821 105.95 45.2854 105.965 45.2849Z" fill="white" stroke="black" stroke-width="0.759355" stroke-miterlimit="10" stroke-linecap="round"/>
<path d="M47.918 58.5048C47.0999 57.227 46.1136 56.0653 44.9857 55.0507C43.8675 54.0567 42.5753 53.1621 41.0595 52.7646C40.2961 52.5615 39.495 52.5446 38.7237 52.7149C37.9598 52.8739 37.2394 53.1959 36.6114 53.6591C35.9703 54.1184 35.3936 54.6618 34.8968 55.2744C34.6545 55.5957 34.4543 55.9463 34.3004 56.318C34.1357 56.7191 34.0925 57.1599 34.1762 57.5854C34.291 58.0316 34.5539 58.4258 34.9217 58.7036C35.2631 58.9647 35.6647 59.1357 36.0896 59.2006C36.9365 59.3246 37.7988 59.1201 38.5 58.629C38.8312 58.3723 39.117 58.0615 39.3449 57.7096C39.5618 57.3498 39.7134 56.9544 39.7922 56.5417C39.9629 55.7537 39.9457 54.9364 39.7425 54.1561C39.5723 53.3773 39.2785 52.6306 38.8727 51.9445C38.4433 51.2582 37.8967 50.6526 37.2575 50.1554C36.61 49.6785 35.8757 49.3323 35.0956 49.1365C34.3104 48.976 33.5038 48.9507 32.7101 49.062C31.1197 49.2856 29.6784 49.9566 28.3614 50.7517C27.693 51.1486 27.0682 51.615 26.4977 52.1433C26.194 52.4139 25.9267 52.7231 25.7025 53.0627C25.4508 53.4256 25.289 53.8428 25.2304 54.2804C25.2073 54.5232 25.2326 54.7682 25.3049 55.001C25.3807 55.2264 25.5084 55.4307 25.6777 55.5974C25.99 55.9214 26.3856 56.1535 26.8207 56.2683C27.6283 56.452 28.4713 56.409 29.256 56.1441C30.0199 55.8881 30.7164 55.4635 31.2936 54.9016C31.8615 54.348 32.3172 53.6897 32.6355 52.9634C32.9598 52.245 33.1775 51.4833 33.2816 50.702C33.4178 49.9029 33.3139 49.0814 32.9834 48.3413C32.8905 48.1587 32.7824 47.9843 32.6604 47.8195L32.4367 47.5959L32.3373 47.4965L32.2131 47.3971L31.9646 47.2231L31.6913 47.074L31.1446 46.8255C30.4063 46.5909 29.6322 46.4901 28.8584 46.5273C27.3334 46.5822 25.8255 46.867 24.3855 47.3722C23.6693 47.6105 22.9716 47.9013 22.2981 48.2419C21.6113 48.5588 20.9816 48.9869 20.4344 49.5093C21.0097 49.0257 21.6548 48.6321 22.3478 48.3413C23.0364 48.0439 23.7416 47.7867 24.46 47.571C25.8862 47.1364 27.3677 46.9105 28.8584 46.9001C29.5848 46.9026 30.3059 47.0201 30.9955 47.248C31.6664 47.5213 32.2628 47.9438 32.5361 48.565C32.7896 49.2215 32.8582 49.9347 32.7349 50.6275C32.6104 51.3402 32.3932 52.0335 32.0888 52.69C31.7934 53.3361 31.3702 53.9156 30.8449 54.3939C30.3198 54.8723 29.703 55.2393 29.0324 55.4731C28.381 55.6821 27.6845 55.708 27.0195 55.5477C26.7117 55.4923 26.4316 55.3347 26.2244 55.1004C26.1304 55.0022 26.0594 54.8845 26.0164 54.7555C25.9734 54.6265 25.9597 54.4899 25.9759 54.3549C26.0199 54.0368 26.1486 53.7364 26.3486 53.4852C26.5377 53.2002 26.7634 52.9412 27.0195 52.7149C27.5543 52.2156 28.1465 51.782 28.7839 51.4227C30.0263 50.6772 31.3931 50.056 32.8095 49.8572C33.511 49.7496 34.2259 49.7662 34.9217 49.9069C35.5968 50.0766 36.2308 50.3807 36.7854 50.8014C37.9096 51.6794 38.6988 52.9159 39.0219 54.3052C39.1824 54.9896 39.2077 55.6985 39.0964 56.3926C39.0243 56.7256 38.8983 57.0444 38.7237 57.3369C38.4677 57.765 38.0897 58.1072 37.6382 58.3197C37.1867 58.5321 36.6823 58.6052 36.189 58.5296C35.5429 58.4551 34.9217 58.0575 34.7974 57.4611C34.7147 57.149 34.7321 56.8185 34.8471 56.5168C34.9682 56.1883 35.1356 55.8787 35.3441 55.5974C35.7835 55.0132 36.3118 54.5018 36.9096 54.0816C37.4693 53.6338 38.1238 53.3194 38.8231 53.1621C39.5328 52.9929 40.2715 52.9845 40.985 53.1373C42.4014 53.4603 43.7184 54.2555 44.8615 55.2247C45.4355 55.6995 45.9752 56.2142 46.4767 56.7653C46.9911 57.3162 47.4722 57.897 47.918 58.5048Z" fill="#FC5258"/>
<path d="M112.576 68.693C113.038 67.7651 113.561 66.8685 114.141 66.0092C114.706 65.1482 115.329 64.3262 116.005 63.5491C116.685 62.7882 117.462 62.1198 118.316 61.5612L118.664 61.3624L118.987 61.1884C119.211 61.0642 119.459 60.9896 119.683 60.8902C120.159 60.7511 120.653 60.6842 121.149 60.6914C121.4 60.6999 121.65 60.7334 121.894 60.7908C122.016 60.8005 122.134 60.8343 122.242 60.8902L122.59 60.9896L122.938 61.1636L123.261 61.3375L123.584 61.5363L123.733 61.6357L123.882 61.76L124.18 61.9836L124.454 62.2321L124.976 62.7788L125.473 63.3752C125.622 63.5491 125.771 63.7728 125.92 63.9716C126.537 64.7901 127.077 65.6636 127.535 66.5808L127.684 66.9287L127.833 67.2766C127.933 67.5002 127.982 67.7487 128.057 67.9723C128.172 68.4273 128.189 68.9017 128.107 69.3639C128.052 69.558 127.939 69.7309 127.784 69.8597C127.629 69.9884 127.438 70.0669 127.237 70.0846C126.789 70.1241 126.339 70.0289 125.945 69.8112C125.062 69.3642 124.302 68.7071 123.733 67.8978C123.587 67.7089 123.454 67.5094 123.336 67.3014C123.211 67.0778 123.062 66.8541 122.963 66.6305C122.863 66.4068 122.739 66.1832 122.665 65.9595L122.515 65.6116L122.416 65.2638C122.283 64.7849 122.2 64.2936 122.168 63.7976C122.147 63.3083 122.164 62.8183 122.217 62.3315C122.331 61.3452 122.617 60.3863 123.062 59.4987C123.271 59.0486 123.529 58.6237 123.833 58.2313C124.142 57.8549 124.493 57.5134 124.876 57.2125C125.254 56.9265 125.673 56.7004 126.119 56.5416C126.342 56.4494 126.576 56.3825 126.814 56.3428L127.162 56.2931C127.275 56.26 127.394 56.2516 127.51 56.2682C128.488 56.2431 129.458 56.4474 130.343 56.8646C131.249 57.305 132.107 57.838 132.903 58.455L133.474 58.9271L133.772 59.1756L134.046 59.449L134.592 59.9708C134.779 60.1408 134.953 60.3234 135.114 60.5175C135.812 61.2496 136.436 62.0487 136.978 62.9031C137.228 63.3243 137.444 63.7646 137.624 64.2201C137.803 64.6631 137.904 65.134 137.922 65.6116C137.961 66.0507 137.847 66.4896 137.599 66.8541C137.47 67.0179 137.308 67.1531 137.125 67.2512C136.941 67.3496 136.738 67.409 136.531 67.4257C136.076 67.493 135.611 67.4326 135.189 67.2517C134.73 67.0944 134.301 66.8588 133.921 66.5559C133.134 65.9416 132.461 65.1929 131.933 64.3443C131.396 63.4927 130.954 62.5845 130.616 61.6357C130.276 60.6738 130.018 59.6845 129.846 58.6786C129.637 57.6827 129.562 56.6631 129.622 55.647C129.665 55.1542 129.774 54.6694 129.945 54.2057C130.033 53.9808 130.141 53.7646 130.269 53.5596C130.414 53.3678 130.581 53.1929 130.766 53.0378C131.13 52.7289 131.565 52.5155 132.033 52.4166C132.521 52.3013 133.023 52.2595 133.524 52.2923C134.536 52.3768 135.531 52.6027 136.481 52.9633C137.455 53.3159 138.395 53.7567 139.289 54.2803C140.19 54.7763 141.047 55.35 141.848 55.9949C142.679 56.6144 143.416 57.3509 144.035 58.1816C143.444 57.3221 142.733 56.5523 141.923 55.8955C141.126 55.227 140.278 54.6207 139.388 54.0815C138.499 53.5437 137.569 53.0786 136.605 52.6899C135.634 52.2709 134.602 52.0108 133.549 51.9196C133.018 51.8574 132.481 51.8825 131.958 51.9941C131.414 52.1072 130.903 52.3452 130.467 52.6899C130.252 52.8726 130.06 53.081 129.896 53.3111C129.739 53.5373 129.606 53.7788 129.498 54.0318C129.29 54.53 129.164 55.0586 129.125 55.5973C129.034 56.6604 129.092 57.7311 129.299 58.778C129.453 59.8175 129.703 60.8408 130.045 61.8345C130.376 62.8412 130.818 63.8078 131.362 64.7171C131.93 65.638 132.653 66.4533 133.499 67.1275C133.936 67.4652 134.422 67.7333 134.94 67.9226C135.477 68.1316 136.055 68.2166 136.63 68.1711C137.245 68.0956 137.806 67.7837 138.196 67.3014C138.562 66.8081 138.738 66.1993 138.693 65.5868C138.68 65.0312 138.562 64.483 138.345 63.9716C138.168 63.4584 137.935 62.9664 137.649 62.5055C137.079 61.6064 136.421 60.7657 135.686 59.9957C135.517 59.7931 135.334 59.6023 135.139 59.4241L134.568 58.8774L134.294 58.6041L133.996 58.3307L133.375 57.8337C132.544 57.1618 131.635 56.5945 130.666 56.144C129.674 55.6706 128.584 55.4405 127.485 55.473C127.344 55.4688 127.203 55.4773 127.063 55.4979L126.641 55.5725C126.367 55.6122 126.1 55.6873 125.845 55.7961C125.32 55.9864 124.826 56.2543 124.379 56.5913C123.956 56.9362 123.572 57.3281 123.236 57.7592C122.891 58.1864 122.599 58.6538 122.366 59.1508C121.886 60.1157 121.582 61.1596 121.472 62.2321C121.418 62.7689 121.402 63.3083 121.422 63.8473C121.471 64.3938 121.571 64.9345 121.72 65.4625L121.845 65.8601L121.994 66.2329C122.095 66.4801 122.211 66.7207 122.342 66.9535C122.441 67.202 122.59 67.4257 122.714 67.6742C122.839 67.9226 123.012 68.1214 123.186 68.3202C123.498 68.7636 123.865 69.1646 124.28 69.513C124.689 69.8835 125.149 70.1931 125.647 70.4324C126.169 70.6926 126.756 70.796 127.336 70.7306C127.656 70.676 127.956 70.5391 128.206 70.3331L128.38 70.1591C128.416 70.0895 128.457 70.0229 128.504 69.9603C128.547 69.8907 128.581 69.8154 128.604 69.7367L128.678 69.513C128.799 68.9541 128.782 68.3742 128.628 67.8233C128.529 67.5748 128.455 67.3014 128.355 67.0778L128.206 66.705L128.032 66.3323C127.546 65.3997 126.98 64.5101 126.342 63.6734L125.845 63.0521L125.323 62.4558L124.777 61.9091L124.454 61.6357L124.156 61.3872L123.982 61.263L123.833 61.1636L123.485 60.9648L123.112 60.766L122.739 60.592L122.366 60.4926L121.969 60.3684C121.695 60.3436 121.447 60.2939 121.174 60.2939C120.633 60.308 120.097 60.4 119.583 60.5672L118.838 60.8902L118.49 61.089L118.167 61.2878C117.306 61.8857 116.529 62.5962 115.856 63.4C114.53 65.0093 113.427 66.7895 112.576 68.693Z" fill="#FC5258"/>
<path d="M71.0296 34.4502C72.5951 37.6558 74.3346 40.7868 76.1983 43.8185C78.062 46.8501 79.8512 49.9314 81.6155 53.0376C83.3798 56.1438 85.1193 59.2003 86.809 62.3562C88.4988 65.5121 90.3377 68.5686 92.3008 71.5505C91.5056 69.9353 90.6856 68.3449 89.9152 66.7545C89.1449 65.1642 88.3249 63.5738 87.5545 61.9586C86.7842 60.3434 85.9642 58.7779 85.1193 57.1875C84.2744 55.5971 83.4047 54.0564 82.5349 52.4909C81.6652 50.9254 80.7209 49.4096 79.8015 47.8938C78.8821 46.378 77.8881 44.8621 76.8941 43.3712C75.9001 41.8802 74.9061 40.4141 73.937 38.9231C72.9679 37.4321 72.0236 35.9412 71.0296 34.4502Z" fill="#FC5258"/>
<path d="M72.6429 34.7236C77.9607 43.9925 78.3831 43.7688 83.7009 53.0377C89.0187 62.3066 88.5963 62.5551 93.9141 71.8239" stroke="black" stroke-width="0.759355" stroke-miterlimit="10" stroke-linecap="round"/>
<path d="M94.1081 47.2973C90.3752 47.2973 87.3491 44.2711 87.3491 40.5382C87.3491 36.8053 90.3752 33.7792 94.1081 33.7792C97.841 33.7792 100.867 36.8053 100.867 40.5382C100.867 44.2711 97.841 47.2973 94.1081 47.2973Z" fill="#2BADAD" stroke="black" stroke-width="0.759355" stroke-miterlimit="10"/>
<path d="M69.5836 72.47C65.878 72.47 62.8742 69.4662 62.8742 65.7606C62.8742 62.0551 65.878 59.0513 69.5836 59.0513C73.2892 59.0513 76.293 62.0551 76.293 65.7606C76.293 69.4662 73.2892 72.47 69.5836 72.47Z" fill="#FC5258" stroke="black" stroke-width="0.759355" stroke-miterlimit="10" stroke-linecap="round"/>
<path d="M111.729 69.0401C111.729 69.0401 117.817 54.8511 124.8 63.3993C131.783 71.9475 123.93 72.7179 121.271 65.9091C119.209 60.6162 124.253 50.3782 133.845 59.5973C143.437 68.8165 130.913 72.37 128.428 58.33C126.415 46.8247 140.207 53.8074 142.965 57.9076" stroke="black" stroke-width="0.759355" stroke-miterlimit="10" stroke-linecap="round"/>
<path d="M48.7852 58.6038C48.7852 58.6038 42.7219 49.4095 37.0313 54.1806C31.3408 58.9517 39.7896 61.2627 40.2369 55.9946C40.5351 52.5157 36.8574 46.179 28.8807 51.1738C20.904 56.1685 32.0863 59.2747 33.5773 50.8011C34.7949 43.8183 23.0162 47.1233 20.8046 49.4592" stroke="black" stroke-width="0.759355" stroke-miterlimit="10" stroke-linecap="round"/>
<path d="M29.4769 68.6929L30.7442 71.5009L29.1538 74.1101L32.2103 73.787L34.2231 76.098L34.8444 73.0913L37.6523 71.8985L34.9934 70.3827L34.7449 67.3262L32.4837 69.3887L29.4769 68.6929Z" fill="#FC5258" stroke="black" stroke-width="0.759355" stroke-miterlimit="10" stroke-linecap="round"/>
<path d="M123.707 88.2495L124.999 91.1072L123.384 93.7661L126.465 93.4182L128.503 95.8038L129.149 92.7473L132.031 91.5297L129.323 89.989L129.074 86.8828L126.763 88.9702L123.707 88.2495Z" stroke="black" stroke-width="0.759355" stroke-miterlimit="10" stroke-linecap="round"/>
<path d="M36.2117 105.495L38.15 102.638L41.6289 102.613L39.4918 99.8794L40.5355 96.5744L37.2802 97.7423L34.4723 95.7295L34.5716 99.2084L31.7885 101.246L35.1183 102.215L36.2117 105.495Z" stroke="black" stroke-width="0.759355" stroke-miterlimit="10" stroke-linecap="round"/>
<path d="M100.4 134.743L102.015 137.601L100.574 140.583L103.804 139.912L106.165 142.198L106.538 138.918L109.445 137.377L106.439 136.01L105.867 132.78L103.655 135.19L100.4 134.743Z" stroke="black" stroke-width="0.759355" stroke-miterlimit="10" stroke-linecap="round"/>
<path d="M151.749 78.7098L154.085 78.2626L155.75 79.9275L156.073 77.5916L158.16 76.4982L156.023 75.5043L155.65 73.1436L154.035 74.883L151.699 74.5103L152.818 76.5976L151.749 78.7098Z" stroke="black" stroke-width="0.759355" stroke-miterlimit="10" stroke-linecap="round"/>
<path d="M39.071 18.2739L42.5499 16.8326L45.6809 18.8951L45.4076 15.1429L48.3398 12.7821L44.687 11.8876L43.3451 8.38379L41.3571 11.5894L37.6049 11.7633L40.0401 14.6459L39.071 18.2739Z" stroke="black" stroke-width="0.759355" stroke-miterlimit="10" stroke-linecap="round"/>
<path d="M111.73 69.0402C111.73 69.0402 117.818 54.8512 124.801 63.3994" stroke="black" stroke-width="0.759355" stroke-miterlimit="10" stroke-linecap="round"/>
<path d="M51.3453 48.0682C46.5007 48.0682 42.5735 44.1409 42.5735 39.2963C42.5735 34.4516 46.5007 30.5244 51.3453 30.5244C56.19 30.5244 60.1172 34.4516 60.1172 39.2963C60.1172 44.1409 56.19 48.0682 51.3453 48.0682Z" fill="#FC5258" stroke="black" stroke-width="0.759355" stroke-miterlimit="10" stroke-linecap="round"/>
<path d="M51.3447 46.1544C47.5568 46.1544 44.4862 43.0838 44.4862 39.296C44.4862 35.5081 47.5568 32.4375 51.3447 32.4375C55.1325 32.4375 58.2031 35.5081 58.2031 39.296C58.2031 43.0838 55.1325 46.1544 51.3447 46.1544Z" fill="white"/>
<path d="M121.943 121.97C117.098 121.97 113.171 118.043 113.171 113.198C113.171 108.353 117.098 104.426 121.943 104.426C126.788 104.426 130.715 108.353 130.715 113.198C130.715 118.043 126.788 121.97 121.943 121.97Z" fill="#FC5258" stroke="black" stroke-width="0.759355" stroke-miterlimit="10" stroke-linecap="round"/>
<path d="M121.942 120.057C118.155 120.057 115.084 116.986 115.084 113.198C115.084 109.41 118.155 106.34 121.942 106.34C125.73 106.34 128.801 109.41 128.801 113.198C128.801 116.986 125.73 120.057 121.942 120.057Z" fill="white"/>
</svg>
