<svg width="97" height="98" viewBox="0 0 97 98" fill="none" xmlns="http://www.w3.org/2000/svg">
<path d="M56.3373 50.2337C56.2373 49.626 56.0878 49.0276 55.89 48.4446C55.9232 48.0775 55.8798 47.7075 55.7622 47.3583C55.4747 46.3679 55.1552 45.4095 54.8038 44.451C54.8718 43.9258 54.7827 43.3923 54.5482 42.9175L53.6856 41.0645C53.6217 39.8825 52.9188 38.6365 52.3438 37.5822C51.7687 36.5279 51.6409 35.6653 50.8742 34.8027C50.938 33.3331 49.5962 32.119 48.6378 30.937C48.0947 30.298 47.903 29.7549 47.264 29.2757C46.625 28.7964 45.9861 27.806 45.5388 27.231C44.9337 26.3751 44.1756 25.6387 43.3024 25.0585L43.0149 24.8029C42.5357 24.3876 42.1523 23.7167 41.5453 23.493C39.277 21.3525 36.5614 19.6912 33.8138 18.1897C34.1333 17.4548 34.4847 16.752 34.8681 16.0491C35.0419 15.9661 35.1866 15.8325 35.2835 15.6657L37.0086 12.0875L37.8393 10.9374C38.1907 10.3623 38.3824 9.72338 38.7019 9.11637C39.0214 8.50935 39.6604 7.7426 40.0757 7.0078C40.491 6.27299 40.8424 5.9535 40.3632 5.53817C39.884 5.12284 39.2131 5.37844 38.5741 5.63403C38.0604 5.27589 37.515 4.96567 36.9447 4.70752C36.4412 3.64685 35.6135 2.77403 34.5806 2.21557C33.3666 1.48076 31.5775 0.682052 30.1398 1.12933C29.5756 1.29769 29.0296 1.52261 28.5104 1.80024C28.3986 1.78618 28.2852 1.79929 28.1798 1.83794C28.074 1.87692 27.9795 1.94081 27.9034 2.02387C27.8028 2.1047 27.7162 2.20183 27.6478 2.31141L27.2006 2.63089C27.0395 2.68936 26.9038 2.80246 26.8172 2.95038H26.7852C26.5571 3.13599 26.3434 3.33887 26.1463 3.5574C25.9546 3.74909 25.7948 3.74908 25.8268 3.97272C25.8587 4.19636 25.2837 4.54778 24.9322 4.70752C24.8038 4.7497 24.6891 4.82541 24.5993 4.92637C24.5096 5.02733 24.4482 5.15032 24.4211 5.28259C23.7422 5.00017 23.016 4.84842 22.2805 4.83533C20.8783 3.80052 19.3413 2.96219 17.712 2.34335C17.5845 2.30917 17.4506 2.30471 17.3209 2.33027C17.1912 2.35583 17.0692 2.41109 16.9644 2.49128C16.8593 2.57147 16.7743 2.67498 16.7155 2.79319C16.6567 2.91172 16.626 3.04175 16.6257 3.17402C16.6577 3.78103 16.434 3.52543 16.466 4.1005C16.0826 5.60207 17.3605 7.77455 18.1912 9.02053C18.2254 9.11637 18.28 9.20359 18.3509 9.27611C18.3247 9.34767 18.3139 9.42371 18.319 9.49975C18.287 11.8639 20.14 14.5156 21.2263 16.5283C21.3128 16.6763 21.4486 16.7894 21.6096 16.8478C21.9611 17.5826 22.0888 18.1577 22.5681 18.8286C22.5681 18.8606 22.2805 19.0203 22.2486 19.0523L22.0569 19.3078C21.524 19.8577 20.9352 20.35 20.2998 20.7774C18.4148 21.9915 17.3925 23.8445 16.3062 25.7614C13.974 29.9146 11.8015 34.3235 10.6195 38.956C9.45495 43.3035 9.29106 47.8583 10.1402 52.2783C10.7153 55.0259 11.8974 58.8597 14.2296 60.8085L14.3254 60.9682C14.728 61.6631 15.1989 62.3158 15.7312 62.9171C15.7312 62.9254 15.7328 62.9337 15.736 62.9417C15.7392 62.9493 15.7439 62.9564 15.75 62.9621C15.7558 62.9682 15.7628 62.973 15.7708 62.9762C15.7784 62.9794 15.7868 62.981 15.7951 62.981C17.5842 65.7924 19.9164 68.6997 23.4626 68.4441C24.0058 68.8275 24.8364 68.6997 25.4434 68.6039C26.7533 68.4441 27.9993 68.6358 29.2772 68.3802C31.2899 68.8275 33.1429 68.4441 35.1876 67.7412L36.3697 67.262C36.7435 67.2381 37.1106 67.1518 37.4559 67.0064L39.5326 66.1119L39.9159 66.048L40.5868 65.9841C41.3993 65.8998 42.1456 65.4978 42.6635 64.8659L43.0149 64.6103C43.544 64.5583 44.0676 64.4621 44.5804 64.3228L44.9957 64.3867C49.085 64.6103 52.9188 62.0864 54.5482 58.4763C55.3469 56.7057 55.8539 54.8176 56.0498 52.8854C56.5929 52.2144 56.497 51.1921 56.3373 50.2337ZM48.7017 50.2656L48.2544 50.042C48.1717 49.6944 48.0649 49.3525 47.9349 49.0196C47.848 48.7976 47.741 48.5835 47.6154 48.3807C48.0985 48.4867 48.5978 48.4976 49.085 48.4126L48.7017 50.2656ZM38.9255 46.8472C38.8297 46.5277 38.8936 46.6235 38.9255 46.8472V46.8472ZM30.8426 41.416C30.9385 41.0006 31.0663 40.5853 31.1621 40.17C32.1206 40.6812 33.2388 40.3617 34.0055 39.6588C34.7608 40.461 35.5719 41.2083 36.4336 41.8952C35.9167 41.8521 35.3965 41.9179 34.9068 42.0885C34.417 42.2591 33.9685 42.5306 33.5902 42.8856C31.1302 45.2497 31.9608 48.2529 33.079 50.9685H33.0471C31.9775 50.4854 30.85 50.142 29.6925 49.9461C28.7341 49.4349 27.7756 48.9877 26.7852 48.5723C27.4271 48.4842 28.029 48.2104 28.5171 47.7848C29.005 47.359 29.3583 46.7999 29.5328 46.1762C29.9801 44.6108 30.3954 43.0134 30.8426 41.416ZM23.207 42.9814C23.1112 43.7482 23.0473 44.5149 22.9514 45.3136C22.9185 45.7302 22.9821 46.1484 23.1374 46.5363C23.2923 46.9245 23.5348 47.2711 23.846 47.55C22.7741 47.2887 21.654 47.2995 20.5873 47.582C21.6681 46.1762 22.5495 44.628 23.207 42.9814ZM35.6349 10.9055L35.6988 10.7138V10.7777C35.6988 10.7863 35.6956 10.7943 35.6895 10.8004C35.6834 10.8061 35.6754 10.8096 35.6668 10.8096C35.6668 10.8416 35.6349 10.8735 35.6349 10.9055Z" fill="white"/>
<path d="M21.4802 67.773C20.9463 67.3817 20.3917 67.019 19.8188 66.6868C19.338 66.206 18.8256 65.7577 18.2853 65.3449L17.7742 64.8657C17.7742 64.8338 17.7422 64.8018 17.7422 64.7699C17.4975 64.3667 17.1962 64.0009 16.8477 63.6836C16.6959 63.5463 16.5359 63.4182 16.3684 63.3003C16.1381 63.0111 15.8812 62.7437 15.6017 62.5016L15.4419 62.3418C15.4841 62.1799 15.4614 62.008 15.378 61.8626C15.0103 61.2869 14.5579 60.77 14.0362 60.3291C14.0576 60.2367 14.0602 60.1409 14.0439 60.0476C14.0273 59.9543 13.9921 59.8655 13.9404 59.786C13.7027 59.3013 13.4017 58.8502 13.0458 58.4441C13.0458 57.7413 12.5347 56.9426 12.0554 56.3675L11.9915 56.3036V56.2397V56.08C11.6401 54.834 11.1928 53.7478 11.0012 52.4379C10.9456 52.1353 10.8708 51.8366 10.7775 51.5433C10.8165 51.4082 10.8382 51.2686 10.8414 51.128C10.8152 51.0564 10.8043 50.9804 10.8095 50.9044C10.7242 50.2654 10.5964 49.6264 10.4261 48.9875C10.4986 48.8389 10.521 48.6709 10.49 48.5083L10.3941 47.7415C10.5229 47.5779 10.5909 47.3748 10.5858 47.1664C10.5596 47.084 10.5488 46.9974 10.5539 46.9108C10.5219 46.847 10.5219 46.7511 10.49 46.6872C10.5513 46.578 10.5948 46.4591 10.6178 46.3358H10.6497C10.6178 46.2399 10.6178 46.1441 10.5858 46.0483C10.6567 45.9339 10.6797 45.7962 10.6497 45.6649C10.6497 45.3454 10.6178 44.994 10.6178 44.6745V43.9397C10.6628 43.8831 10.6954 43.818 10.7136 43.748C10.8158 43.6103 10.8615 43.4391 10.8414 43.2688C10.8465 43.1084 10.836 42.9477 10.8095 42.7895L10.9053 41.9908C11.0836 41.849 11.1986 41.6423 11.2248 41.4158C11.3526 40.3295 11.5762 39.3072 11.7679 38.2529C12.0069 38.1353 12.1925 37.9315 12.2871 37.6823C12.3819 37.4334 12.3791 37.158 12.2791 36.9111C12.2768 36.8079 12.2436 36.7076 12.1832 36.6236C12.4685 36.1373 12.704 35.6236 12.8861 35.09C13.2816 34.3089 13.6129 33.4968 13.8765 32.662C13.9417 32.6364 14.0008 32.5974 14.05 32.5479C14.0995 32.4987 14.1385 32.4396 14.164 32.3744L14.4516 31.7355L14.5474 31.5757C14.5458 31.5585 14.548 31.5409 14.5535 31.5246C14.5589 31.508 14.5678 31.493 14.5793 31.4799L14.9627 30.4895C14.9947 30.4895 14.9947 30.4895 14.9947 30.4575C15.0397 30.401 15.0723 30.3358 15.0905 30.2659C15.3461 29.6588 15.6656 29.0838 15.9531 28.4768C16.0205 28.333 16.0739 28.1835 16.1129 28.0295L16.3045 27.7419C16.3649 27.6579 16.3981 27.5576 16.4004 27.4544C16.4831 27.4394 16.5598 27.4017 16.6221 27.3451C16.6841 27.2886 16.7291 27.2158 16.7518 27.1349L17.8381 25.1222L17.9339 25.0264C18.1256 24.6749 18.477 24.3874 18.7007 24.036C18.9425 23.7075 19.1665 23.3663 19.3716 23.0136C19.3716 22.9817 19.4035 22.9497 19.4035 22.8858H19.4355C19.7869 22.5983 20.2022 22.2788 20.2661 21.7996C20.5236 21.6143 20.7054 21.3418 20.7773 21.0328C20.8092 21.0328 20.8092 21.0009 20.8092 20.969C20.9578 20.89 21.0885 20.7814 21.1926 20.6495C21.2255 20.6137 21.2479 20.5696 21.2565 20.5217C21.3284 20.4773 21.3891 20.4166 21.4335 20.3444C21.4779 20.2722 21.5047 20.1907 21.5121 20.1063C21.5076 20.046 21.4875 19.9878 21.4539 19.9373C21.4204 19.8869 21.3744 19.8463 21.3204 19.8188C21.268 19.791 21.2108 19.7741 21.1517 19.769C21.0926 19.7635 21.0332 19.7699 20.977 19.7878C20.9204 19.8057 20.868 19.8345 20.8227 19.8728C20.7776 19.9108 20.7402 19.9578 20.7134 20.0105C20.585 20.0341 20.4636 20.0868 20.3585 20.1642C20.2533 20.2418 20.1671 20.3421 20.1064 20.4578C19.7984 20.6265 19.5268 20.8543 19.3077 21.1287C19.1518 21.1012 18.9914 21.1354 18.8604 21.2245C18.7007 21.3204 16.5921 23.0136 16.3365 23.2692C16.0809 23.5248 14.0682 25.889 13.9084 26.1126C13.1097 26.9433 9.46764 31.7355 9.40375 31.9272C8.18972 33.4926 6.01724 38.2529 6.36867 39.7864C5.8575 41.4797 5.34632 48.3485 5.85749 50.0737C5.53801 51.128 5.60191 52.0226 5.72971 53.1088C5.47412 53.3963 6.14503 54.2589 6.04919 54.6423C5.79328 55.6218 5.7281 56.6413 5.85749 57.6454C5.6019 58.4122 5.7297 59.3387 6.08113 60.2652C6.02011 60.4633 5.97729 60.6665 5.95333 60.8722C5.79359 62.246 6.62424 63.9392 8.09386 64.1948L8.54114 64.2587L9.11621 64.6101C9.11653 64.7539 9.17403 64.8919 9.27595 64.9935C11.1609 67.0063 15.1544 68.0605 17.87 67.9008C18.7384 68.1986 19.6393 68.3918 20.5536 68.4759C20.8175 68.519 21.0859 68.5295 21.3524 68.5078C21.3846 68.5081 21.4166 68.5014 21.446 68.4883C21.4754 68.4752 21.5015 68.4557 21.523 68.4315C21.544 68.4072 21.56 68.3784 21.569 68.3478C21.5782 68.3168 21.5805 68.2842 21.576 68.2522C21.6182 68.1736 21.6319 68.0829 21.6143 67.9954C21.5968 67.9078 21.5495 67.8292 21.4802 67.773Z" fill="#150304"/>
<path d="M56.1758 53.4604C66.1756 53.4604 66.1756 54.1314 76.1434 54.1314C86.1112 54.1314 86.1112 53.4604 96.111 53.4604" stroke="#150304" stroke-width="0.913647" stroke-miterlimit="10" stroke-linecap="round"/>
<path d="M22.5331 18.7327C22.5331 18.7327 8.18839 23.8764 3.6837 50.3295C-0.820994 76.7825 41.3506 67.6134 47.1971 65.2492C53.0436 62.8851 60.4236 56.0162 53.5548 39.8824C46.6859 23.7486 34.0345 18.3174 34.0345 18.3174C34.0345 18.3174 29.5298 21.3205 22.5331 18.7327Z" stroke="#150304" stroke-width="0.913647" stroke-miterlimit="10" stroke-linecap="round"/>
<path d="M41.0647 11.6082L34.1319 18.2215C34.1 18.2535 34.068 18.2215 34.068 18.1896C35.2182 14.196 41.3203 6.78407 40.4577 5.50614C39.5951 4.22821 39.2117 7.23134 36.0808 3.52535C32.0553 -1.23493 27.2631 1.7682 24.9948 4.70743C23.3974 6.78407 17.8384 0.266647 16.4646 3.07809C15.3145 5.37835 22.5347 18.7327 22.5347 18.7327C22.5347 18.7327 -4.55729 50.0419 22.5028 68.6357" stroke="#150304" stroke-width="0.913647" stroke-miterlimit="10" stroke-linecap="round"/>
<path d="M40.5526 17.2949L34.0352 18.3172" stroke="#150304" stroke-width="0.913647" stroke-miterlimit="10" stroke-linecap="round"/>
<path d="M52.5654 50.8727C41.2516 50.9638 29.9656 52.0114 18.8282 54.0037C18.7445 54.034 18.6553 54.0471 18.5662 54.0426C18.4774 54.0378 18.3901 54.0155 18.3096 53.9768C18.2294 53.9382 18.1576 53.8839 18.0985 53.8174C18.0394 53.7506 17.9943 53.6727 17.9656 53.5883C17.103 49.9143 16.4001 46.2083 15.8889 42.4704C15.857 42.1509 16.1765 41.8314 16.5918 41.7675C27.8081 39.8289 39.1446 38.6653 50.5207 38.2852C50.7009 38.2855 50.8776 38.3366 51.0303 38.4324C51.1827 38.5286 51.305 38.6657 51.3833 38.8283C52.1501 42.6621 52.7891 46.4958 53.2683 50.2977C53.3002 50.6172 52.9807 50.8727 52.5654 50.8727Z" fill="#FBE9E9"/>
<path d="M52.5654 50.8727C41.2516 50.9638 29.9656 52.0114 18.8282 54.0037C18.7445 54.034 18.6553 54.0471 18.5662 54.0426C18.4774 54.0378 18.3901 54.0155 18.3096 53.9768C18.2294 53.9382 18.1576 53.8839 18.0985 53.8174C18.0394 53.7506 17.9943 53.6727 17.9656 53.5883C17.103 49.9143 16.4001 46.2083 15.8889 42.4704C15.857 42.1509 16.1765 41.8314 16.5918 41.7675C27.8081 39.8289 39.1446 38.6653 50.5207 38.2852C50.7009 38.2855 50.8776 38.3366 51.0303 38.4324C51.1827 38.5286 51.3051 38.6657 51.3833 38.8283C52.1501 42.6621 52.7891 46.4958 53.2683 50.2977C53.3002 50.6172 52.9807 50.8727 52.5654 50.8727Z" stroke="#150304" stroke-width="0.913647" stroke-miterlimit="10" stroke-linecap="round"/>
<path d="M40.806 45.6967C41.2852 47.965 38.5376 49.4666 35.3109 49.6902C32.0841 49.9138 28.8893 48.7318 28.442 46.6232C27.9947 44.5146 30.7742 42.2143 33.9371 41.9587C37.1 41.7031 40.2628 43.4283 40.806 45.6967Z" fill="white"/>
<path d="M40.806 45.6967C41.2852 47.965 38.5376 49.4666 35.3109 49.6902C32.0841 49.9138 28.8893 48.7318 28.442 46.6232C27.9947 44.5146 30.7742 42.2143 33.9371 41.9587C37.1 41.7031 40.2628 43.4283 40.806 45.6967Z" stroke="#150304" stroke-width="0.913647" stroke-miterlimit="10" stroke-linecap="round"/>
<path d="M35.4688 83.2037C35.4688 83.8107 36.6828 84.3858 38.8233 84.865C42.6251 85.7276 49.3023 86.3026 56.874 86.3026C64.4457 86.3026 71.1229 85.7276 74.9247 84.865C77.0333 84.3858 78.2793 83.8107 78.2793 83.2037C78.2793 81.4785 68.6948 80.0728 56.874 80.0728C45.0532 80.0728 35.4688 81.4785 35.4688 83.2037Z" fill="#FC5258" stroke="#150304" stroke-width="0.913647" stroke-miterlimit="10" stroke-linecap="round"/>
<path d="M35.4688 83.2036V86.5582C35.4688 88.2514 45.0532 89.6571 56.874 89.6571C68.6948 89.6571 78.2793 88.2514 78.2793 86.5582V83.2036C78.2793 83.8106 77.0333 84.3857 74.9247 84.8649C71.1229 85.7275 64.4457 86.3026 56.874 86.3026C49.3023 86.3026 42.6251 85.7275 38.8233 84.8649C36.6828 84.3857 35.4688 83.8106 35.4688 83.2036Z" fill="#FC5258" stroke="#150304" stroke-width="0.913647" stroke-miterlimit="10" stroke-linecap="round"/>
<path d="M76.6523 84.3862V87.7408" stroke="#150304" stroke-width="0.913647" stroke-miterlimit="10" stroke-linecap="round"/>
<path d="M37.1016 84.3862V87.7408" stroke="#150304" stroke-width="0.913647" stroke-miterlimit="10" stroke-linecap="round"/>
<path d="M70.3281 85.6318V88.9864" stroke="#150304" stroke-width="0.913647" stroke-miterlimit="10" stroke-linecap="round"/>
<path d="M61.1914 86.3027V89.5934" stroke="#150304" stroke-width="0.913647" stroke-miterlimit="10" stroke-linecap="round"/>
<path d="M52.0547 86.2393V89.5938" stroke="#150304" stroke-width="0.913647" stroke-miterlimit="10" stroke-linecap="round"/>
<path d="M43.4258 85.6318V88.9864" stroke="#150304" stroke-width="0.913647" stroke-miterlimit="10" stroke-linecap="round"/>
<path d="M35.4688 77.6449C35.4688 78.2519 36.6828 78.827 38.8233 79.3381C42.6251 80.2007 49.3023 80.7758 56.874 80.7758C64.4457 80.7758 71.1229 80.2007 74.9247 79.3381C77.0333 78.827 78.2793 78.2519 78.2793 77.6449C78.2793 75.9197 68.6948 74.5459 56.874 74.5459C45.0532 74.5459 35.4688 75.9197 35.4688 77.6449Z" fill="#FC5258" stroke="#150304" stroke-width="0.913647" stroke-miterlimit="10" stroke-linecap="round"/>
<path d="M35.4688 77.645V80.9996C35.4688 82.7248 45.0532 84.0986 56.874 84.0986C68.6948 84.0986 78.2793 82.7248 78.2793 80.9996V77.645C78.2793 78.252 77.0333 78.8271 74.9247 79.3383C71.1229 80.2009 64.4457 80.7759 56.874 80.7759C49.3023 80.7759 42.6251 80.2009 38.8233 79.3383C36.6828 78.8271 35.4688 78.252 35.4688 77.645Z" fill="#FC5258" stroke="#150304" stroke-width="0.913647" stroke-miterlimit="10" stroke-linecap="round"/>
<path d="M76.6523 78.8594V82.2139" stroke="#150304" stroke-width="0.913647" stroke-miterlimit="10" stroke-linecap="round"/>
<path d="M37.1016 78.8594V82.2139" stroke="#150304" stroke-width="0.913647" stroke-miterlimit="10" stroke-linecap="round"/>
<path d="M70.3281 80.0728V83.4273" stroke="#150304" stroke-width="0.913647" stroke-miterlimit="10" stroke-linecap="round"/>
<path d="M61.1914 80.7759V84.0666" stroke="#150304" stroke-width="0.913647" stroke-miterlimit="10" stroke-linecap="round"/>
<path d="M52.0547 80.6802V84.0347" stroke="#150304" stroke-width="0.913647" stroke-miterlimit="10" stroke-linecap="round"/>
<path d="M43.4258 80.0728V83.4273" stroke="#150304" stroke-width="0.913647" stroke-miterlimit="10" stroke-linecap="round"/>
<path d="M37.1016 74.7699C37.1016 75.4088 38.3475 75.9839 40.4561 76.4631C44.258 77.3257 50.9351 77.9008 58.5068 77.9008C66.0786 77.9008 72.7557 77.3257 76.5575 76.4631C78.6981 75.9839 79.9121 75.4088 79.9121 74.7699C79.9121 73.0766 70.3277 71.6709 58.5068 71.6709C46.686 71.6709 37.1016 73.0766 37.1016 74.7699Z" fill="#FC5258" stroke="#150304" stroke-width="0.913647" stroke-miterlimit="10" stroke-linecap="round"/>
<path d="M37.1016 74.77V78.1246C37.1016 79.8498 46.686 81.2555 58.5068 81.2555C70.3277 81.2555 79.9121 79.8498 79.9121 78.1246V74.77C79.9121 75.409 78.6981 75.984 76.5575 76.4633C72.7557 77.3259 66.1105 77.9009 58.5068 77.9009C50.9032 77.9009 44.258 77.3259 40.4561 76.4633C38.3475 75.984 37.1016 75.409 37.1016 74.77Z" fill="#FC5258" stroke="#150304" stroke-width="0.913647" stroke-miterlimit="10" stroke-linecap="round"/>
<path d="M78.2852 75.9839V79.3384" stroke="#150304" stroke-width="0.913647" stroke-miterlimit="10" stroke-linecap="round"/>
<path d="M38.7656 75.9839V79.3384" stroke="#150304" stroke-width="0.913647" stroke-miterlimit="10" stroke-linecap="round"/>
<path d="M71.957 77.1978V80.5523" stroke="#150304" stroke-width="0.913647" stroke-miterlimit="10" stroke-linecap="round"/>
<path d="M62.8203 77.9009V81.1916" stroke="#150304" stroke-width="0.913647" stroke-miterlimit="10" stroke-linecap="round"/>
<path d="M53.6836 77.8364V81.159" stroke="#150304" stroke-width="0.913647" stroke-miterlimit="10" stroke-linecap="round"/>
<path d="M45.0586 77.1978V80.5523" stroke="#150304" stroke-width="0.913647" stroke-miterlimit="10" stroke-linecap="round"/>
<path d="M35.5703 70.2007C35.5703 70.8078 36.8163 71.3828 38.9249 71.862C42.7267 72.7246 49.4039 73.2997 56.9756 73.2997C64.5473 73.2997 71.2245 72.7246 75.0263 71.862C77.1668 71.3828 78.3809 70.8078 78.3809 70.2007C78.3809 68.4755 68.7964 67.0698 56.9756 67.0698C45.1548 67.0698 35.5703 68.4755 35.5703 70.2007Z" fill="#FC5258" stroke="#150304" stroke-width="0.913647" stroke-miterlimit="10" stroke-linecap="round"/>
<path d="M35.5703 70.2012V73.5238C35.5703 75.249 45.1548 76.6547 56.9756 76.6547C68.7964 76.6547 78.3809 75.249 78.3809 73.5238V70.2012C78.3809 70.8082 77.1668 71.3833 75.0263 71.8625C71.2245 72.7251 64.5792 73.3001 56.9756 73.3001C49.3719 73.3001 42.7267 72.7251 38.9249 71.8625C36.8163 71.3833 35.5703 70.8082 35.5703 70.2012Z" fill="#FC5258" stroke="#150304" stroke-width="0.913647" stroke-miterlimit="10" stroke-linecap="round"/>
<path d="M76.7461 71.3833V74.7379" stroke="#150304" stroke-width="0.913647" stroke-miterlimit="10" stroke-linecap="round"/>
<path d="M37.2305 71.3833V74.7379" stroke="#150304" stroke-width="0.913647" stroke-miterlimit="10" stroke-linecap="round"/>
<path d="M70.4258 72.5972V75.9517" stroke="#150304" stroke-width="0.913647" stroke-miterlimit="10" stroke-linecap="round"/>
<path d="M61.2852 73.3003V76.591" stroke="#150304" stroke-width="0.913647" stroke-miterlimit="10" stroke-linecap="round"/>
<path d="M52.1484 73.2363V76.5589" stroke="#150304" stroke-width="0.913647" stroke-miterlimit="10" stroke-linecap="round"/>
<path d="M43.5234 72.5972V75.9517" stroke="#150304" stroke-width="0.913647" stroke-miterlimit="10" stroke-linecap="round"/>
<path d="M37.1953 66.7826C37.1953 67.4535 38.4413 68.1245 40.5818 68.6676C44.3836 69.626 51.0289 70.265 58.6325 70.265C66.2362 70.265 72.8495 69.626 76.6513 68.6676C78.7918 68.1245 80.0378 67.4535 80.0378 66.7826C80.0378 64.8657 70.4533 63.3003 58.6325 63.3003C46.8117 63.3003 37.1953 64.8657 37.1953 66.7826Z" fill="#FC5258" stroke="#150304" stroke-width="0.913647" stroke-miterlimit="10" stroke-linecap="round"/>
<path d="M37.1953 66.7827V70.5207C37.1953 72.4695 46.7798 74.003 58.6325 74.003C70.4853 74.003 80.0378 72.4695 80.0378 70.5207V66.7827C80.0378 67.4536 78.7918 68.1245 76.6513 68.6677C72.8495 69.6261 66.2042 70.2651 58.6325 70.2651C51.0608 70.2651 44.3836 69.6261 40.5818 68.6677C38.4413 68.1245 37.1953 67.4536 37.1953 66.7827Z" fill="#FC5258" stroke="#150304" stroke-width="0.913647" stroke-miterlimit="10" stroke-linecap="round"/>
<path d="M78.3789 68.1245V71.8625" stroke="#150304" stroke-width="0.913647" stroke-miterlimit="10" stroke-linecap="round"/>
<path d="M38.8594 68.1245V71.8625" stroke="#150304" stroke-width="0.913647" stroke-miterlimit="10" stroke-linecap="round"/>
<path d="M72.0859 69.498V73.236" stroke="#150304" stroke-width="0.913647" stroke-miterlimit="10" stroke-linecap="round"/>
<path d="M62.918 70.2651V73.9392" stroke="#150304" stroke-width="0.913647" stroke-miterlimit="10" stroke-linecap="round"/>
<path d="M53.8086 70.1689V73.9388" stroke="#150304" stroke-width="0.913647" stroke-miterlimit="10" stroke-linecap="round"/>
<path d="M45.1836 69.498V73.236" stroke="#150304" stroke-width="0.913647" stroke-miterlimit="10" stroke-linecap="round"/>
<path d="M1 78.54C7.19794 78.54 7.19795 79.211 13.3639 79.211C19.5299 79.211 19.5619 78.54 25.7598 78.54" fill="white"/>
<path d="M1 78.54C7.19794 78.54 7.19795 79.211 13.3639 79.211C19.5299 79.211 19.5619 78.54 25.7598 78.54" stroke="#150304" stroke-width="0.913647" stroke-miterlimit="10" stroke-linecap="round"/>
<path d="M56.332 96.4946C59.1754 96.4946 59.1754 97.1656 62.0188 97.1656C64.8622 97.1656 64.8622 96.4946 67.7375 96.4946C73.7118 96.4946 73.7118 97.1656 79.6862 97.1656C85.6605 97.1656 85.6604 96.4946 91.6348 96.4946" fill="white"/>
<path d="M56.332 96.4946C59.1754 96.4946 59.1754 97.1656 62.0188 97.1656C64.8622 97.1656 64.8622 96.4946 67.7375 96.4946C73.7118 96.4946 73.7118 97.1656 79.6862 97.1656C85.6605 97.1656 85.6604 96.4946 91.6348 96.4946" stroke="#150304" stroke-width="0.913647" stroke-miterlimit="10" stroke-linecap="round"/>
</svg>
