<svg width="144" height="144" viewBox="0 0 144 144" fill="none" xmlns="http://www.w3.org/2000/svg">
<g opacity="0.2" clip-path="url(#clip0_466_2086)">
<path d="M134.425 73.8651C133.845 72.6797 133.845 71.3201 134.425 70.1349L139.795 59.148C142.786 53.0305 140.416 45.7392 134.402 42.5479L123.599 36.816C122.433 36.1978 121.634 35.0976 121.406 33.7985L119.294 21.7529C118.117 15.0463 111.913 10.5395 105.173 11.4933L93.0641 13.2061C91.7572 13.3906 90.4648 12.9704 89.5167 12.0532L80.7274 3.55052C75.8334 -1.18402 68.1666 -1.1843 63.2729 3.55052L54.4833 12.0541C53.5349 12.9715 52.2426 13.3908 50.9359 13.2069L38.8273 11.4941C32.0844 10.5398 25.8829 15.0471 24.7064 21.7538L22.5937 33.7988C22.3656 35.0981 21.5666 36.1981 20.4014 36.8166L9.59861 42.5484C3.58383 45.7395 1.21459 53.0314 4.20482 59.1488L9.57526 70.1355C10.1546 71.321 10.1546 72.6805 9.57526 73.8657L4.20454 84.8524C1.21431 90.9698 3.58355 98.2612 9.59832 101.453L20.4011 107.184C21.5666 107.803 22.3656 108.903 22.5937 110.202L24.7064 122.247C25.7774 128.353 31.0126 132.635 37.0293 132.634C37.6219 132.634 38.2232 132.592 38.8276 132.507L50.9362 130.794C52.242 130.609 53.5352 131.03 54.4836 131.947L63.2729 140.45C65.7203 142.817 68.8596 144.001 72 144C75.1396 144 78.2809 142.817 80.7272 140.45L89.5167 131.947C90.4651 131.03 91.7577 130.611 93.0641 130.794L105.173 132.507C111.916 133.461 118.117 128.954 119.294 122.247L121.407 110.202C121.635 108.903 122.434 107.803 123.599 107.184L134.402 101.453C140.416 98.2615 142.786 90.9695 139.795 84.8521L134.425 73.8651ZM55.3892 34.6262C63.785 34.6262 70.6157 41.4569 70.6157 49.8527C70.6157 58.2485 63.785 65.0792 55.3892 65.0792C46.9934 65.0792 40.1627 58.2485 40.1627 49.8527C40.1627 41.4569 46.9934 34.6262 55.3892 34.6262ZM47.53 102.342C46.7192 103.153 45.6563 103.559 44.5938 103.559C43.5312 103.559 42.4681 103.153 41.6575 102.342C40.0359 100.721 40.0359 98.0913 41.6575 96.4696L96.4698 41.6574C98.0912 40.0357 100.721 40.0357 102.342 41.6574C103.964 43.2791 103.964 45.9085 102.342 47.5302L47.53 102.342ZM88.6103 109.374C80.2144 109.374 73.3838 102.543 73.3838 94.1476C73.3838 85.7518 80.2144 78.9211 88.6103 78.9211C97.0061 78.9211 103.837 85.7518 103.837 94.1476C103.837 102.543 97.0061 109.374 88.6103 109.374Z" fill="#B5B5B5"/>
<path d="M88.6105 87.2266C84.7942 87.2266 81.6892 90.3313 81.6892 94.1475C81.6892 97.9638 84.7939 101.068 88.6105 101.068C92.4267 101.068 95.5314 97.9638 95.5314 94.1475C95.5314 90.3313 92.4267 87.2266 88.6105 87.2266Z" fill="#B5B5B5"/>
<path d="M55.3892 42.9314C51.573 42.9314 48.4683 46.0361 48.4683 49.8524C48.4683 53.6686 51.573 56.7736 55.3892 56.7736C59.2055 56.7736 62.3105 53.6689 62.3105 49.8524C62.3102 46.0364 59.2055 42.9314 55.3892 42.9314Z" fill="#B5B5B5"/>
</g>
<defs>
<clipPath id="clip0_466_2086">
<rect width="144" height="144" fill="white"/>
</clipPath>
</defs>
</svg>
