<svg width="53" height="54" viewBox="0 0 53 54" fill="none" xmlns="http://www.w3.org/2000/svg">
<path d="M51.1328 11.5352C51.7797 11.5352 52.3047 12.0602 52.3047 12.707C52.3047 13.3539 51.7797 13.8789 51.1328 13.8789C50.4859 13.8789 49.9609 13.3539 49.9609 12.707C49.9609 12.0602 50.4859 11.5352 51.1328 11.5352Z" fill="url(#paint0_linear_973_29139)"/>
<path d="M51.1328 42.0039C51.7797 42.0039 52.3047 42.5289 52.3047 43.1758C52.3047 43.8227 51.7797 44.3477 51.1328 44.3477C50.4859 44.3477 49.9609 43.8227 49.9609 43.1758C49.9609 42.5289 50.4859 42.0039 51.1328 42.0039Z" fill="url(#paint1_linear_973_29139)"/>
<path d="M45.2734 49.0352C46.5684 49.0352 47.6172 50.084 47.6172 51.3789C47.6172 52.6738 46.5684 53.7227 45.2734 53.7227C43.9785 53.7227 42.9297 52.6738 42.9297 51.3789C42.9297 50.084 43.9785 49.0352 45.2734 49.0352Z" fill="#D51F26"/>
<path d="M42.9297 0.988281C43.5766 0.988281 44.1016 1.51328 44.1016 2.16016C44.1016 2.80703 43.5766 3.33203 42.9297 3.33203C42.2828 3.33203 41.7578 2.80703 41.7578 2.16016C41.7578 1.51328 42.2828 0.988281 42.9297 0.988281Z" fill="url(#paint2_linear_973_29139)"/>
<path d="M26.5234 4.50391C13.5789 4.50391 3.08594 14.9969 3.08594 27.9414C3.08594 40.8859 13.5789 51.3789 26.5234 51.3789C39.468 51.3789 49.9609 40.8859 49.9609 27.9414C49.9609 14.9969 39.468 4.50391 26.5234 4.50391Z" fill="url(#paint3_linear_973_29139)"/>
<path d="M26.5234 45.5195C16.8156 45.5195 8.94531 37.6492 8.94531 27.9414C8.94531 18.2336 16.8156 10.3633 26.5234 10.3633C36.2312 10.3633 44.1016 18.2336 44.1016 27.9414C44.1016 37.6492 36.2312 45.5195 26.5234 45.5195Z" fill="white"/>
<path d="M35.2362 22.4006C36.1516 23.3158 36.1516 24.7994 35.2362 25.7146L26.9499 34.0021L23.6358 37.3162L20.3206 34.0021L17.835 31.5154C17.3781 31.0584 17.1484 30.4584 17.1484 29.8584C17.1484 29.2584 17.3781 28.6584 17.835 28.2012C18.7504 27.286 20.234 27.286 21.1491 28.2012L23.6358 30.6868L31.9223 22.4006C32.3805 21.9436 32.9793 21.7139 33.5793 21.7139C34.1793 21.7139 34.7781 21.9436 35.2362 22.4006Z" fill="#D51F26"/>
<path d="M8.94531 51.3789C9.59219 51.3789 10.1172 51.9039 10.1172 52.5508C10.1172 53.1977 9.59219 53.7227 8.94531 53.7227C8.29832 53.7227 7.77344 53.1977 7.77344 52.5508C7.77344 51.9039 8.29832 51.3789 8.94531 51.3789Z" fill="url(#paint4_linear_973_29139)"/>
<path d="M6.01562 3.33203C7.63398 3.33203 8.94531 4.64336 8.94531 6.26172C8.94531 7.88008 7.63398 9.19141 6.01562 9.19141C4.39715 9.19141 3.08594 7.88008 3.08594 6.26172C3.08594 4.64336 4.39715 3.33203 6.01562 3.33203Z" fill="#D51F26"/>
<path d="M1.91406 12.707C2.56094 12.707 3.08594 13.232 3.08594 13.8789C3.08594 14.5258 2.56094 15.0508 1.91406 15.0508C1.26707 15.0508 0.742188 14.5258 0.742188 13.8789C0.742188 13.232 1.26707 12.707 1.91406 12.707Z" fill="url(#paint5_linear_973_29139)"/>
<path d="M1.91406 42.0039C2.56094 42.0039 3.08594 42.5289 3.08594 43.1758C3.08594 43.8227 2.56094 44.3477 1.91406 44.3477C1.26707 44.3477 0.742188 43.8227 0.742188 43.1758C0.742188 42.5289 1.26707 42.0039 1.91406 42.0039Z" fill="url(#paint6_linear_973_29139)"/>
<path d="M40.5859 27.9414C40.5859 27.2942 40.0612 26.7695 39.4141 26.7695C38.767 26.7695 38.2422 27.2942 38.2422 27.9414C38.2422 34.4032 32.9853 39.6602 26.5234 39.6602C25.8762 39.6602 25.3516 40.1849 25.3516 40.832V45.4797C25.739 45.5052 26.1296 45.5195 26.5234 45.5195C26.9173 45.5195 27.3078 45.5052 27.6953 45.4797V41.9555C34.903 41.358 40.5859 35.3008 40.5859 27.9414Z" fill="#FBE9E9"/>
<path d="M12.4609 27.9414C12.4609 28.5885 12.9856 29.1133 13.6328 29.1133C14.2799 29.1133 14.8047 28.5885 14.8047 27.9414C14.8047 21.4797 20.0616 16.2227 26.5234 16.2227C27.1705 16.2227 27.6953 15.698 27.6953 15.0508V10.4031C27.3078 10.3776 26.9173 10.3633 26.5234 10.3633C26.1296 10.3633 25.739 10.3776 25.3516 10.4031V13.9273C18.1438 14.5248 12.4609 20.582 12.4609 27.9414Z" fill="#FBE9E9"/>
<defs>
<linearGradient id="paint0_linear_973_29139" x1="52.3047" y1="12.9353" x2="49.9609" y2="12.9353" gradientUnits="userSpaceOnUse">
<stop stop-color="#D51F26"/>
<stop offset="1" stop-color="#F55E36"/>
</linearGradient>
<linearGradient id="paint1_linear_973_29139" x1="52.3047" y1="43.404" x2="49.9609" y2="43.404" gradientUnits="userSpaceOnUse">
<stop stop-color="#D51F26"/>
<stop offset="1" stop-color="#F55E36"/>
</linearGradient>
<linearGradient id="paint2_linear_973_29139" x1="44.1016" y1="2.3884" x2="41.7578" y2="2.3884" gradientUnits="userSpaceOnUse">
<stop stop-color="#D51F26"/>
<stop offset="1" stop-color="#F55E36"/>
</linearGradient>
<linearGradient id="paint3_linear_973_29139" x1="49.9609" y1="32.5063" x2="3.08594" y2="32.5063" gradientUnits="userSpaceOnUse">
<stop stop-color="#D51F26"/>
<stop offset="1" stop-color="#F55E36"/>
</linearGradient>
<linearGradient id="paint4_linear_973_29139" x1="10.1172" y1="52.779" x2="7.77344" y2="52.779" gradientUnits="userSpaceOnUse">
<stop stop-color="#D51F26"/>
<stop offset="1" stop-color="#F55E36"/>
</linearGradient>
<linearGradient id="paint5_linear_973_29139" x1="3.08594" y1="14.1072" x2="0.742188" y2="14.1072" gradientUnits="userSpaceOnUse">
<stop stop-color="#D51F26"/>
<stop offset="1" stop-color="#F55E36"/>
</linearGradient>
<linearGradient id="paint6_linear_973_29139" x1="3.08594" y1="43.404" x2="0.742188" y2="43.404" gradientUnits="userSpaceOnUse">
<stop stop-color="#D51F26"/>
<stop offset="1" stop-color="#F55E36"/>
</linearGradient>
</defs>
</svg>
